<?xml version="1.0" encoding="UTF-8"?>
<svg width="39px" height="53px" viewBox="0 0 39 53" version="1.1" xmlns="http://www.w3.org/2000/svg" xmlns:xlink="http://www.w3.org/1999/xlink">
    <!-- Generator: Sketch 50.2 (55047) - http://www.bohemiancoding.com/sketch -->
    <title>bouquet</title>
    <desc>Created with Sketch.</desc>
    <defs></defs>
    <g id="Page-1" stroke="none" stroke-width="1" fill="none" fill-rule="evenodd">
        <g id="Оформление.-Шаг-1.(life4_soul)-Copy" transform="translate(-342.000000, -467.000000)" fill="#000000" fill-rule="nonzero">
            <g id="bouquet" transform="translate(342.000000, 467.000000)">
                <path d="M38.134061,13.6798196 C37.5666854,12.9133883 36.7912649,12.3629946 35.8992677,12.0790507 C35.7402801,10.8494896 34.8797217,10.4942232 34.7857217,10.4315961 C35.3491939,9.85045822 35.4836001,9.1770877 35.5100805,8.79118065 C35.6239143,7.13472022 34.2828062,5.33282003 32.6398643,4.9352157 C32.2571126,4.84246551 31.5620827,4.76317238 30.82633,5.11346997 C30.7017352,4.67994564 30.4566602,4.257394 30.0295987,3.89229364 C29.0668113,3.06903218 27.4732432,2.89274471 26.1546065,3.39831606 C25.7407324,2.91355139 25.2212535,2.52919708 24.6424839,2.32578846 C24.2720756,2.19556554 23.5910771,2.04753789 22.8247296,2.32019861 C22.6736545,1.53409934 22.1970083,1.03442839 21.8943305,0.787853664 C20.5923627,-0.272562578 18.3184291,-0.260865288 17.0280662,0.812904496 C16.7280259,1.0625847 16.2568657,1.56722441 16.1142305,2.3547729 C15.3449291,2.0900829 14.6656186,2.24525314 14.2966872,2.37909912 C12.7098711,2.95516476 11.5831377,4.8933953 11.8858154,6.5267717 C11.956289,6.90729592 12.1666547,7.56172305 12.7933211,8.07712841 C12.714091,8.1437926 12.0243361,8.62897134 11.8871869,9.72717086 C11.0537418,9.98202685 10.2971002,10.261002 9.54847665,10.5372858 C8.82264092,10.8050813 8.11410708,11.0664588 7.34976408,11.3024749 C7.50442617,11.1779453 7.61150804,10.9964821 7.6346124,10.7859308 C7.68134863,10.3596526 7.36706598,9.97685106 6.93261953,9.93089003 C5.48295256,9.7777901 5.13913008,9.16963456 5.10589778,8.68662966 C5.04428614,7.7901825 5.88722618,6.65771924 6.77616395,6.44250981 C7.25492014,6.32646856 7.94984455,6.46279892 8.53926958,7.76968637 C8.53948058,7.77020395 8.53969158,7.77072153 8.53990258,7.77123911 C8.71661404,8.1633571 9.18397629,8.34036918 9.58360794,8.1672907 C9.98334509,7.99379816 10.16396,7.53543003 9.98724857,7.14320852 C9.47409959,6.00463782 9.5901489,5.24245071 10.332337,4.87745386 C10.7231067,4.6855355 10.8811448,4.21898962 10.685338,3.83567047 C10.4896366,3.45245484 10.0143619,3.29707757 9.62348671,3.48930648 C8.9105219,3.83981111 8.42237627,4.40107398 8.21063902,5.11295239 C7.47488634,4.76286183 6.77985643,4.84225848 6.39710468,4.93480164 C4.75437384,5.33250949 3.41305473,7.13430616 3.52688856,8.79076659 C3.55336891,9.17677715 3.68788062,9.85087228 4.2521968,10.4321137 C4.13087251,10.5119244 3.36642401,10.8833392 3.10826703,12.2319436 C2.19717438,12.5201317 1.40835552,13.0849141 0.838236877,13.8723591 C0.112401146,14.87491 -0.159787253,16.1412192 0.0914067698,17.3468682 C1.22352061,22.7787582 4.15935734,32.56204 11.1086015,37.1089732 L11.1086015,39.8456214 C11.1086015,40.6846173 11.5338695,41.4625388 12.2459903,41.9267038 C12.4762954,42.0768018 12.726118,42.1855969 12.9849079,42.255056 L10.7868284,45.261363 C9.59668986,46.8889425 9.87541922,49.0449704 11.4495755,50.3879849 C11.7292543,50.6265889 12.0303496,50.8503901 12.3391462,51.0606308 C12.8962885,51.4398093 13.2854757,51.0768828 13.4386608,50.856394 C13.6847908,50.5020593 13.5916349,50.0190544 13.2305105,49.777552 C12.9708765,49.6038524 12.7209485,49.4150395 12.4879004,49.2161856 C11.5135081,48.3847464 11.3466081,47.1592224 12.0725493,46.1662985 L14.5077915,42.8356764 L13.5026989,45.9360792 C13.0721559,47.2641874 13.8231005,48.6884618 15.1766575,49.11091 C15.4354475,49.1916523 17.6357426,49.7763098 18.412218,47.4684242 L19.5182735,44.0568527 L20.624329,47.4684242 C21.3235789,49.7381124 23.6013105,49.1915488 23.859995,49.11091 C24.5137746,48.9067767 25.0482345,48.4635219 25.3651546,47.862716 C25.6819693,47.2618066 25.7418929,46.5776704 25.5339536,45.9361828 L24.528861,42.8358834 L26.9641032,46.1665055 C27.6900444,47.1594294 27.5231444,48.3849534 26.5487522,49.2163926 C25.3559762,50.2341603 23.1678135,51.4472624 19.518379,51.4472624 C18.2682114,51.4472624 17.1011772,51.3054457 16.0498759,51.0258495 C15.6279839,50.9131207 15.1934319,51.1581427 15.0791761,51.5718955 C14.9648148,51.9857518 15.2140043,52.4122371 15.6357908,52.5243447 C16.8220259,52.8399645 18.1283192,53 19.5182735,53 C23.6569087,53 26.1903708,51.5796592 27.5870771,50.3880884 C29.1610223,49.0451774 29.4397517,46.889046 28.2498242,45.26157 L26.0517446,42.2552631 C26.3106401,42.185804 26.5604626,42.0770088 26.7907677,41.9269108 C27.502994,41.4627458 27.928262,40.6848243 27.928262,39.8458284 L27.928262,37.1435475 C30.0146178,35.7884217 31.8877593,33.8631306 33.5008448,31.4137389 C33.7380074,31.0536073 33.632719,30.5729832 33.2656867,30.3402796 C32.8987598,30.1079901 32.4089262,30.2108848 32.1716581,30.5710164 C30.8149361,32.6311886 29.2711636,34.2818522 27.5733621,35.4940226 C27.3809313,35.1748833 27.1162333,34.8966327 26.7906622,34.6845288 C26.0784359,34.2202602 25.1827462,34.1373441 24.3945603,34.4626943 L22.1946873,35.3706317 C21.483727,34.7458102 20.545732,34.3648719 19.5182735,34.3648719 C18.4909206,34.3648719 17.5529256,34.7457066 16.8419653,35.3706317 L14.6419867,34.4626943 C13.8538008,34.137137 12.9582166,34.2202602 12.2459903,34.6845288 C11.9290701,34.8911464 11.6693307,35.1600805 11.4782713,35.4686612 C5.36236677,31.0851796 2.69618645,22.0956572 1.64172015,17.0360101 C1.47555863,16.2386276 1.64836661,15.4345166 2.12817779,14.7717047 C2.60092051,14.1186232 3.30449587,13.7006263 4.10913964,13.5943155 C6.67857703,13.2549906 8.42047728,12.6121573 10.1050914,11.9905446 C12.5121652,11.1022752 14.7857823,10.2632794 19.4667898,10.2391602 C24.1514898,10.2122461 26.4303819,11.0304353 28.8468451,11.8935503 C30.5380002,12.4976687 32.2868634,13.1222833 34.8596768,13.4352117 C35.6655865,13.5331377 36.3734874,13.943992 36.8532986,14.5921047 C37.3402837,15.2498443 37.5216371,16.0519885 37.3641265,16.8511308 C36.7990719,19.7159316 35.7101073,23.9524208 33.7306224,27.8664581 C33.5363981,28.2506054 33.6962296,28.7164267 34.0876323,28.9071028 C34.479246,29.0976755 34.9538877,28.9407455 35.1481121,28.5567017 C37.206405,24.4868731 38.3341933,20.1052547 38.9177104,17.1461509 C39.1562445,15.9381211 38.8705522,14.6747103 38.134061,13.6798196 Z M23.1640156,36.6553668 L25.0083557,35.8941113 C25.3111389,35.7690642 25.6416685,35.7998084 25.9153339,35.9781662 C26.1889993,36.156524 26.3458769,36.4435734 26.3458769,36.7658182 L26.3458769,39.8460355 C26.3458769,40.1683838 26.1888938,40.4555367 25.9153339,40.633791 C25.6416685,40.8123558 25.3111389,40.842686 25.0083557,40.7178459 L23.1640156,39.9565904 C23.4012837,39.4541245 23.5346349,38.895139 23.5346349,38.3060304 C23.5346349,37.7168182 23.4012837,37.1578327 23.1640156,36.6553668 Z M22.3756187,41.3154428 L24.0261565,46.4071798 C24.2059274,46.9404934 23.9025112,47.4691488 23.3803948,47.6316687 C22.8582784,47.794292 22.2983932,47.5103481 22.1324426,46.9981517 L20.5493189,42.114378 C21.1691278,41.9527898 22.3756187,41.3154428 22.3756187,41.3154428 Z M19.51859,35.91792 C20.8605421,35.91792 21.9523552,36.9893089 21.9523552,38.3059268 C21.9523552,39.6225448 20.8605421,40.6938302 19.51859,40.6938302 C18.1766379,40.6938302 17.0848248,39.6225448 17.0848248,38.3059268 C17.0848248,36.9893089 18.1765324,35.91792 19.51859,35.91792 Z M18.4877556,42.1144815 L16.9046319,46.9982552 C16.8247689,47.2446229 16.4694469,47.88197 15.6566797,47.6317722 C14.8439125,47.3815744 14.9311605,46.6535475 15.010918,46.4073868 L16.6615613,41.3155463 C16.6615613,41.3154428 17.8678412,41.9527898 18.4877556,42.1144815 Z M12.6911977,36.7658182 C12.6911977,36.4435734 12.8480752,36.1564205 13.1217406,35.9781662 C13.395406,35.7997049 13.7260411,35.7693748 14.0287188,35.8941113 L15.8730589,36.6553668 C15.6357908,37.1578327 15.5024396,37.7168182 15.5024396,38.3059268 C15.5024396,38.895139 15.6357908,39.4539175 15.8730589,39.9563834 L14.0287188,40.7176388 C13.7257246,40.842686 13.3953005,40.8118382 13.1218461,40.633584 C12.8481807,40.4552262 12.6911977,40.1681768 12.6911977,39.8458284 L12.6911977,36.7658182 Z M20.2377793,8.69118435 C19.9844753,8.68735427 18.9935196,8.69170193 18.7681729,8.69687773 C18.5999014,8.51676017 18.5067455,8.28540227 18.5067455,8.03944864 C18.5067455,7.50199441 18.9524803,7.06464 19.5003386,7.06464 C20.0481969,7.06464 20.4939318,7.50199441 20.4939318,8.03944864 C20.4937208,8.28208976 20.4024638,8.51189492 20.2377793,8.69118435 Z M25.5379626,6.18672218 C25.3873095,7.05149349 24.3966703,7.23792551 23.5919211,7.24216966 C23.5918156,7.24216966 23.5917101,7.24216966 23.5917101,7.24216966 C23.1547316,7.24444701 22.8023637,7.59381296 22.8046847,8.02267907 C22.8070057,8.44999245 23.1607451,8.79490722 23.5958245,8.79490722 C23.5973015,8.79490722 23.598673,8.79490722 23.60015,8.79490722 C24.3015099,8.78838573 24.8408227,8.92513015 25.1726183,9.18505842 C24.2386322,8.99552092 23.1912344,8.84645811 21.9693406,8.76250677 C22.0396032,8.53063129 22.076106,8.28767962 22.076106,8.03975919 C22.076106,6.64612547 20.9205713,5.5123165 19.5001276,5.5123165 C18.0797895,5.5123165 16.9241493,6.64602195 16.9241493,8.03975919 C16.9241493,8.2947187 16.9624455,8.5437778 17.0361896,8.78093259 C15.8333912,8.87223355 14.7984423,9.02450535 13.8765887,9.21590614 C14.2079622,8.9711947 14.7315557,8.84076474 15.4084397,8.83734872 C15.8454181,8.83507137 16.197786,8.48570542 16.1954651,8.0568393 C16.1931441,7.62942241 15.8392991,7.28450764 15.4042197,7.28450764 C15.4027427,7.28450764 15.4013712,7.28450764 15.3998942,7.28450764 C15.3907158,7.28461115 15.3815373,7.28461115 15.3723589,7.28461115 C14.5726736,7.28461115 13.6004968,7.10263031 13.4424587,6.24924574 C13.2787237,5.36532401 13.9868355,4.14714963 14.845495,3.83546344 C15.6838986,3.53133391 16.3441137,4.27985693 16.7501808,4.96161224 C16.970569,5.33178487 17.4553386,5.45662497 17.8324989,5.24017336 C18.0841149,5.09576876 18.2245346,4.83625456 18.2246401,4.56949425 C18.2247456,4.43626936 18.1898253,4.30128471 18.1163978,4.17810086 C17.7103306,3.49634556 17.3694621,2.5645995 18.0514101,1.99712568 C18.7499215,1.41609128 20.1789106,1.40874166 20.8834355,1.98252995 C21.5713969,2.54286118 21.2405509,3.47812677 20.8418687,4.16402271 C20.7712896,4.2855503 20.7377408,4.41784354 20.7377408,4.54837701 C20.7378463,4.81793226 20.8813255,5.07993084 21.1371615,5.22309324 C21.5166428,5.43550774 21.9999354,5.3058024 22.2164201,4.93335242 C22.6152078,4.24745647 23.266983,3.49179086 24.1089735,3.78763912 C24.9710089,4.09042295 25.6922027,5.30114419 25.5379626,6.18672218 Z M33.9312822,8.68683669 C33.8981554,9.1699451 33.5542275,9.77810065 32.1045605,9.93109706 C31.670114,9.97695457 31.3557259,10.3598597 31.4025676,10.7861379 C31.4181815,10.9284722 31.4728302,11.0572459 31.5539592,11.1645918 C30.8031201,10.9397554 30.1041867,10.6904892 29.38869,10.4348051 C28.6648587,10.176119 27.933115,9.91536265 27.1330077,9.67686216 C26.8915196,8.58870368 26.2893292,8.07547215 26.2070397,8.00777279 C26.828009,7.48584594 27.0314118,6.82924498 27.0978764,6.44820318 C27.1929314,5.90215714 27.1278383,5.32391767 26.9406824,4.77486967 C27.673481,4.56669932 28.524228,4.66441827 28.9900078,5.06274721 C29.5852353,5.57173459 29.3511322,6.47522082 29.0499314,7.14351907 C28.8731145,7.53563706 29.0538349,7.9941087 29.4534666,8.16760125 C29.8528872,8.34057621 30.320355,8.16366765 30.4971719,7.77154965 C31.0869135,6.46321298 31.7818379,6.32688262 32.2610161,6.44282036 C33.1499538,6.65792627 33.9928939,7.79049305 33.9312822,8.68683669 Z" id="Shape"></path>
            </g>
        </g>
    </g>
</svg>