<?xml version="1.0" encoding="UTF-8"?>
<svg width="44px" height="42px" viewBox="0 0 44 42" version="1.1" xmlns="http://www.w3.org/2000/svg" xmlns:xlink="http://www.w3.org/1999/xlink">
    <!-- Generator: Sketch 50.2 (55047) - http://www.bohemiancoding.com/sketch -->
    <title>present</title>
    <desc>Created with Sketch.</desc>
    <defs></defs>
    <g id="Page-1" stroke="none" stroke-width="1" fill="none" fill-rule="evenodd">
        <g id="Оформление.-Шаг-1.(life4_soul)-Copy" transform="translate(-818.000000, -482.000000)" fill="#000000" fill-rule="nonzero">
            <g id="present" transform="translate(818.000000, 482.000000)">
                <path d="M43.2016228,24.2571338 C41.1723771,23.0754345 38.9950607,21.6301167 36.7142754,19.9524407 C37.483933,19.6379147 38.0287777,18.8722944 38.0287777,17.9790998 L38.0287777,13.083688 C38.0287777,11.9111573 37.0899948,10.9571881 35.9359381,10.9571881 L34.1934663,10.9571881 C36.6738847,8.84675506 37.1106199,5.09392328 35.1330226,2.44900553 C33.0959565,-0.275460578 29.2572935,-0.80793692 26.5762106,1.26171776 C25.2210598,2.30772204 23.2010093,4.82462891 21.9999447,7.37078792 C20.7987941,4.82567675 18.7702359,2.30099842 17.4239366,1.26171776 C14.7425959,-0.80811156 10.9041048,-0.275285939 8.86703866,2.44900553 C7.93710733,3.69287655 7.50492688,5.23389697 7.65024745,6.78784072 C7.68402095,7.14794771 7.99846681,7.41226484 8.35287369,7.37794815 C8.70728057,7.34363146 8.96724197,7.02404087 8.93364034,6.66402119 C8.87434336,6.02990457 8.93793723,5.39901877 9.11367972,4.80140184 C9.56794615,4.05865934 10.1312675,3.63358639 10.8346671,3.50470231 C11.3146289,3.41677124 11.8147861,3.47335449 12.2905369,3.60241321 C11.9447238,3.79958139 11.6390436,4.06791524 11.3924025,4.39798421 C10.4132289,5.70769438 10.6651981,7.58271316 11.9541769,8.57754802 C12.6242328,9.09483071 14.2122747,9.903587 16.1158796,10.4572821 C16.7693495,10.64729 17.9346641,10.927412 17.9300234,10.9571881 L12.2096696,10.9571881 C11.6470358,10.6661511 11.167074,10.3717086 10.8156749,10.1004059 C10.3628694,9.75086461 9.97932969,9.3298957 9.67536822,8.84902538 C9.48303975,8.54462844 9.08411717,8.45643541 8.78488227,8.65185719 C8.48538955,8.84727898 8.39850658,9.25244301 8.59083505,9.5566653 C8.92392939,10.0839025 9.33247699,10.5535958 9.80693876,10.9570135 L8.06420912,10.9570135 C6.91023833,10.9570135 5.97136948,11.9108953 5.97136948,13.0835134 L5.97136948,17.9789252 C5.97136948,18.8721197 6.51630013,19.63774 7.2858718,19.9522661 C5.00482871,21.629942 2.82751236,23.0752599 0.798524392,24.2569592 C0.188023312,24.6124382 -0.110781904,25.2942315 0.0375464831,25.9940126 C0.186218621,26.6957148 0.736305532,27.1935252 1.43893177,27.2625079 L3.02620021,27.4180245 L2.26427698,29.2439695 C1.99477651,29.8898743 2.15307366,30.6094771 2.66749645,31.0769874 C2.96982511,31.3516956 3.71258423,31.7108421 4.50647626,31.2807919 C5.8146192,30.5721915 7.10926993,29.7260623 8.41535036,28.8478867 L8.41535036,39.6141602 C8.41535036,40.9296335 9.46868816,42 10.7634248,42 L33.2366365,42 C34.5312872,42 35.5847109,40.9297208 35.5847109,39.6141602 L35.5847109,20.737184 C38.0384028,22.5598982 40.3811491,24.1242331 42.5606139,25.3933395 C42.7238095,25.4884308 42.7195985,25.637835 42.702411,25.7184312 C42.6884891,25.7843577 42.6346921,25.9396124 42.4374652,25.9589101 L39.9757812,26.2001748 C39.7714215,26.220171 39.588718,26.3379655 39.4837022,26.5171458 C39.3787723,26.6964134 39.364077,26.9156735 39.4441709,27.1077771 L40.5488135,29.7555764 C40.6216886,29.9301288 40.5325712,30.04705 40.4729305,30.1011883 C40.4132038,30.1555886 40.2885083,30.2327793 40.1250549,30.1395217 C39.3187878,29.6789096 38.4905207,29.178305 37.6632849,28.6517664 C37.3617297,28.4598374 36.9637524,28.5525711 36.7750333,28.8590637 C36.5860564,29.1655563 36.6773222,29.5697598 36.9790493,29.7616015 C37.8235586,30.2992297 38.6547476,30.8379057 39.4934131,31.2810539 C40.294438,31.7043804 41.0302362,31.3519576 41.332393,31.0772494 C41.8468157,30.609739 42.0051129,29.8901363 41.7356124,29.2442315 L40.9736892,27.4182864 L42.5610436,27.2626825 C43.2636698,27.1937871 43.8135849,26.6958895 43.9623429,25.9942746 C44.1109291,25.2944061 43.8121239,24.6126129 43.2016228,24.2571338 Z M22.0001166,8.73437444 C23.3400564,8.73437444 24.4648084,9.68493814 24.7573402,10.9571881 L19.242807,10.9571881 C19.5354247,9.68502546 20.6601767,8.73437444 22.0001166,8.73437444 Z M11.0063706,2.16565267 C12.6724438,1.00718045 14.950651,0.997313308 16.6442243,2.30449121 C17.8171873,3.2100852 19.5716904,5.38277728 20.6948955,7.64113013 C20.0830194,7.84938793 19.5343075,8.19857994 19.0876896,8.65220647 C16.9089123,3.55700689 13.241437,1.99895911 11.0063706,2.16565267 Z M16.4702865,9.19813007 C14.8217445,8.71856955 13.3146559,7.98316191 12.7337174,7.53459993 C12.0107239,6.97653888 11.8693565,5.92485881 12.4186699,5.19023705 C12.7421393,4.75756728 13.2340464,4.52992447 13.7315395,4.52992447 C14.0787276,4.52992447 14.4285798,4.64082066 14.7257522,4.87012254 C15.3068626,5.31859721 16.4081536,6.59652296 17.304827,8.08165868 C17.620562,8.60461716 17.8826718,9.10190361 18.0872034,9.56583389 C17.5935775,9.49047687 17.0519985,9.36726859 16.4702865,9.19813007 Z M8.41526443,27.2707159 C6.90061331,28.3176807 5.37461842,29.2826522 3.87474858,30.1393471 C3.71129517,30.2325173 3.5865137,30.1554139 3.52687297,30.1010137 C3.46731817,30.0468754 3.37820083,29.9299541 3.45099002,29.7554018 L4.5556326,27.1076025 C4.63572649,26.9155862 4.62103115,26.6962387 4.51610128,26.5169711 C4.41108547,26.3377908 4.22838202,26.2200837 4.02402228,26.2000001 L1.56242418,25.9588227 C1.36511133,25.9394377 1.31131436,25.7841831 1.29739246,25.7182566 C1.28029087,25.6376604 1.27599399,25.4882562 1.43918959,25.3931649 C3.61839657,24.1241457 5.96131477,22.5598109 8.41509255,20.7369221 L8.41509255,27.2707159 L8.41526443,27.2707159 Z M8.06420912,18.7957149 C7.62102865,18.7957149 7.26034832,18.4293209 7.26034832,17.9789252 L7.26034832,13.0836007 L7.26043426,13.0836007 C7.26043426,12.6332923 7.62102865,12.266811 8.06429506,12.266811 L17.8790624,12.266811 L17.8790624,18.7956276 L8.06420912,18.7956276 L8.06420912,18.7957149 Z M24.8322778,40.6904645 L19.1679553,40.6904645 L19.1679553,37.4585828 C19.1679553,37.0968167 18.8794626,36.8036841 18.5234229,36.8036841 C18.1673832,36.8036841 17.8788905,37.0968167 17.8788905,37.4585828 L17.8788905,40.6904645 L10.7634248,40.6904645 C10.1793925,40.6904645 9.70441514,40.2077604 9.70441514,39.6144222 L9.70441514,20.1055124 L17.8789765,20.1055124 L17.8789765,34.6396366 C17.8789765,35.0014027 18.1674692,35.2945354 18.5235089,35.2945354 C18.8795486,35.2945354 19.1680413,35.0014027 19.1680413,34.6396366 L19.1680413,20.1055124 L24.8322778,20.1055124 L24.8322778,40.6904645 Z M24.8321919,18.7958022 L19.1679553,18.7958022 L19.1679553,12.2669856 L24.8321919,12.2669856 L24.8321919,18.7958022 Z M23.3054236,7.64121745 C24.4229568,5.40190033 26.2013506,3.19576475 27.3560089,2.30449121 C29.0495822,0.997313308 31.3279612,1.00718045 32.9940345,2.16573999 C30.758968,1.99930839 27.4795013,2.80797737 24.9124577,8.65229379 C24.4660116,8.19857994 23.9172137,7.84938793 23.3054236,7.64121745 Z M26.6953202,8.08192064 C27.5919937,6.59678492 28.6932847,5.31868453 29.274481,4.8703845 C29.5716534,4.64090798 29.9214197,4.53018643 30.2686078,4.53018643 C30.7661008,4.53018643 31.2581798,4.75774192 31.5814773,5.19049901 C32.1307907,5.92512077 31.9894233,6.97680084 31.2664298,7.53494921 C30.6854054,7.98342387 29.1783168,8.71883151 27.5299467,9.19830471 C26.8764768,9.38822535 26.3378196,9.50025669 25.9130298,9.56565925 C26.1172176,9.10268949 26.3791556,8.60575232 26.6953202,8.08192064 Z M27.8846973,10.4571947 C29.7881304,9.90349968 31.3762582,9.09474339 32.046314,8.57763534 C32.6699636,8.0962411 33.071808,7.39602336 33.177941,6.60586619 C33.28416,5.81570902 33.0817768,5.03166424 32.6080025,4.39798421 C32.3624787,4.06957431 32.0586891,3.80228831 31.7151103,3.60538208 C32.1971346,3.47492625 32.6954011,3.41939084 33.1621285,3.50409108 C33.8664735,3.63192731 34.4305683,4.05665098 34.8852644,4.79913152 C35.4420544,6.69702809 34.8260533,8.83339513 33.1847301,10.1003186 C32.8335889,10.3713593 32.3529396,10.6660638 31.7904776,10.9571008 L26.0703683,10.9571008 C26.0658269,10.9271501 27.2287352,10.6479886 27.8846973,10.4571947 Z M34.2957321,39.6144222 C34.2957321,40.2078477 33.8206687,40.6904645 33.2367224,40.6904645 L26.1212567,40.6904645 L26.1212567,20.1055124 L34.295818,20.1055124 L34.295818,39.6144222 L34.2957321,39.6144222 Z M35.9359381,18.7958895 L26.1212567,18.7958895 L26.1212567,12.2669856 L32.4316585,12.2669856 L32.7690497,12.2669856 L35.936024,12.2669856 L35.936024,12.2668983 C36.3792045,12.2668983 36.7398848,12.6332923 36.7398848,13.083688 L36.7398848,17.9790998 C36.7397989,18.4294082 36.3792045,18.7958895 35.9359381,18.7958895 Z" id="Shape"></path>
            </g>
        </g>
    </g>
</svg>