<?xml version="1.0" encoding="UTF-8"?>
<svg width="71px" height="23px" viewBox="0 0 71 23" version="1.1" xmlns="http://www.w3.org/2000/svg" xmlns:xlink="http://www.w3.org/1999/xlink">
    <!-- Generator: Sketch 50.2 (55047) - http://www.bohemiancoding.com/sketch -->
    <title>by excv copy</title>
    <desc>Created with Sketch.</desc>
    <defs></defs>
    <g id="Page-1" stroke="none" stroke-width="1" fill="none" fill-rule="evenodd">
        <g id="Оформление-заказа_мобил-Copy-2" transform="translate(-224.000000, -1367.000000)" fill-rule="nonzero">
            <g id="by-excv-copy" transform="translate(224.000000, 1367.000000)">
                <path d="M27.6283784,1 L17.3716216,1 C17.1734234,1 17,0.810810811 17,0.594594595 L17,0.405405405 C17,0.189189189 17.1734234,0 17.3716216,0 L27.6283784,0 C27.8265766,0 28,0.189189189 28,0.405405405 L28,0.594594595 C28,0.837837838 27.8265766,1 27.6283784,1 Z" id="Shape" fill="#010101"></path>
                <path d="M56.8516854,9.83484163 C56.6539326,9.66063348 56.3820225,9.66063348 56.1842697,9.83484163 C55.1707865,10.7556561 53.8606742,11.2285068 52.352809,11.2285068 C49.411236,11.2285068 47.0134831,9.11312217 47.0134831,6.52488688 C47.0134831,3.96153846 49.411236,1.87104072 52.352809,1.87104072 C53.8606742,1.87104072 55.1707865,2.3438914 56.1842697,3.26470588 C56.3820225,3.43891403 56.6539326,3.43891403 56.8516854,3.26470588 C56.9505618,3.16515837 57,3.06561086 57,2.96606335 C57,2.86651584 56.9505618,2.76696833 56.8516854,2.66742081 C55.6651685,1.59728507 54.058427,1 52.3280899,1 C48.8426966,1 46,3.4638009 46,6.5 C46,9.5361991 48.8426966,12 52.3280899,12 C54.058427,12 55.6404494,11.4027149 56.8516854,10.3823529 C56.9505618,10.2828054 57,10.1832579 57,10.0837104 C57,10.0090498 56.9505618,9.93438914 56.8516854,9.83484163 Z" id="Shape" fill="#010101"></path>
                <path d="M49.8484848,9.94117647 C49.4848485,9.70588235 49.1515152,9.43137255 48.8484848,9.07843137 L48.7575758,9 L48,9.98039216 L48.0909091,10.0588235 C48.4242424,10.4117647 48.7878788,10.6862745 49.1515152,10.9607843 L49.2424242,11 L50,9.98039216 L49.8484848,9.94117647 Z" id="Shape" fill="#E82022"></path>
                <path d="M70.7977987,1.11809094 L70.6245025,1.0437271 C70.4512063,0.944575311 70.2283969,1.01893915 70.1293705,1.21724274 L65.4998863,10.6862388 L60.870402,1.21724274 C60.7713756,1.0437271 60.5485662,0.969363258 60.37527,1.0437271 L60.2019738,1.11809094 C60.0286776,1.21724274 59.9544078,1.44033427 60.0286776,1.6138499 L65.0047543,11.8016964 C65.0295109,11.9008482 65.1037807,11.9504241 65.2028071,11.9752121 C65.2275637,12 65.3018335,12 65.3265901,12 L65.6236693,12 C65.6731825,12 65.7226957,11.9752121 65.7722089,11.9752121 C65.8464787,11.9504241 65.9207485,11.8760603 65.9455051,11.8016964 L70.9215817,1.6138499 C71.0701213,1.44033427 70.9958515,1.21724274 70.7977987,1.11809094 Z" id="Shape" fill="#010101"></path>
                <path d="M23.6276596,6 L17.3723404,6 C17.1737589,6 17,5.81081081 17,5.59459459 L17,5.40540541 C17,5.18918919 17.1737589,5 17.3723404,5 L23.6276596,5 C23.8262411,5 24,5.18918919 24,5.40540541 L24,5.59459459 C24,5.81081081 23.8262411,6 23.6276596,6 Z" id="Shape" fill="#010101"></path>
                <path d="M27.6283784,11 L17.3716216,11 C17.1734234,11 17,10.8108108 17,10.5945946 L17,10.4054054 C17,10.1891892 17.1734234,10 17.3716216,10 L27.6283784,10 C27.8265766,10 28,10.1891892 28,10.4054054 L28,10.5945946 C28,10.8108108 27.8265766,11 27.6283784,11 Z" id="Shape" fill="#010101"></path>
                <path d="M38.6615776,5 L42.8854962,0.764411028 C43.0381679,0.614035088 43.0381679,0.363408521 42.8854962,0.238095238 L42.7582697,0.112781955 C42.605598,-0.037593985 42.351145,-0.037593985 42.2239186,0.112781955 L38,4.34837093 L38.6615776,5 Z" id="Shape" fill="#E82022"></path>
                <path d="M36.3142857,5 C34.6,6.74403471 32.8593407,8.46203905 31.1186813,10.2060738 C30.9604396,10.362256 30.9604396,10.6225597 31.1186813,10.7527115 L31.2505495,10.8828633 C31.4087912,11.0390456 31.6725275,11.0390456 31.8043956,10.8828633 C33.5186813,9.13882863 35.2857143,7.39479393 37,5.65075922 C36.789011,5.44251627 36.5516484,5.23427332 36.3142857,5 Z" id="Shape" fill="#010101"></path>
                <path d="M32.1114865,0.755630631 L42.2443694,10.8885135 C42.393018,11.0371622 42.615991,11.0371622 42.7646396,10.8885135 L42.8885135,10.7646396 C43.0371622,10.615991 43.0371622,10.393018 42.8885135,10.2443694 L32.7556306,0.111486486 C32.606982,-0.0371621622 32.384009,-0.0371621622 32.2353604,0.111486486 L32.1114865,0.23536036 C31.9628378,0.384009009 31.9628378,0.606981982 32.1114865,0.755630631 Z" id="Shape" fill="#010101"></path>
                <g id="Group" fill="#000000">
                    <path d="M2.87058824,10.0864583 C3.45882353,9.89479167 3.95294118,9.46354167 4.16470588,8.96041667 C4.30588235,8.625 4.30588235,8.265625 4.18823529,8.00208333 C4.02352941,7.690625 3.67058824,7.64270833 3.41176471,7.64270833 C3.41176471,7.64270833 3.41176471,7.64270833 3.41176471,7.64270833 C2.8,7.66666667 2.16470588,7.93020833 1.50588235,8.45729167 C1.43529412,8.50520833 1.38823529,8.553125 1.31764706,8.625 C1.31764706,8.60104167 1.34117647,8.60104167 1.34117647,8.57708333 C1.6,8.09791667 1.85882353,7.59479167 2.11764706,7.115625 C2.21176471,6.92395833 2.30588235,6.73229167 2.42352941,6.540625 C3.22352941,5.07916667 4,3.78541667 4.8,2.61145833 C4.91764706,2.44375 5.05882353,2.25208333 5.17647059,2.084375 C5.29411765,1.91666667 5.43529412,1.725 5.55294118,1.55729167 C5.64705882,1.41354167 5.76470588,1.26979167 5.88235294,1.12604167 C6.04705882,0.910416667 6.21176471,0.694791667 6.35294118,0.455208333 C6.4,0.407291667 6.4,0.335416667 6.37647059,0.263541667 C6.35294118,0.191666667 6.28235294,0.14375 6.21176471,0.119791667 C6.14117647,0.119791667 6.09411765,0.14375 6.07058824,0.167708333 C5.81176471,0.43125 5.6,0.694791667 5.41176471,0.982291667 L5.31764706,1.10208333 C5.03529412,1.4375 4.82352941,1.74895833 4.61176471,2.06041667 C4.14117647,2.70729167 3.71764706,3.378125 3.31764706,4.00104167 C2.91764706,4.64791667 2.51764706,5.34270833 2.14117647,6.01354167 C1.95294118,6.34895833 1.76470588,6.70833333 1.6,7.06770833 C1.41176471,7.42708333 1.24705882,7.7625 1.05882353,8.121875 C0.635294118,8.93645833 0.305882353,9.67916667 0.0705882353,10.3739583 C0.0470588235,10.49375 0.117647059,10.6375 0.235294118,10.6854167 C0.258823529,10.6854167 0.305882353,10.709375 0.329411765,10.709375 C0.423529412,10.709375 0.494117647,10.6614583 0.541176471,10.565625 C0.658823529,10.3260417 0.823529412,10.0625 1.01176471,9.79895833 C1.01176471,9.89479167 1.05882353,9.96666667 1.12941176,10.0145833 C1.67058824,10.421875 2.51764706,10.20625 2.87058824,10.0864583 Z M2.89411765,8.24166667 C3.15294118,8.16979167 3.41176471,8.09791667 3.64705882,8.16979167 C3.69411765,8.19375 3.71764706,8.21770833 3.74117647,8.265625 C3.78823529,8.38541667 3.76470588,8.553125 3.69411765,8.696875 C3.57647059,9.03229167 3.24705882,9.34375 2.77647059,9.53541667 C2.25882353,9.72708333 1.67058824,9.703125 1.15294118,9.65520833 C1.15294118,9.65520833 1.12941176,9.65520833 1.12941176,9.65520833 C1.10588235,9.65520833 1.08235294,9.65520833 1.05882353,9.65520833 C1.50588235,9.05625 2.11764706,8.50520833 2.89411765,8.24166667 Z" id="Shape"></path>
                    <path d="M11.8352941,9.03229167 C11.7882353,8.93645833 11.6705882,8.88854167 11.5764706,8.93645833 C11.4588235,8.984375 11.3647059,9.03229167 11.2470588,9.10416667 C10.8705882,9.271875 10.4941176,9.46354167 10.1176471,9.703125 C9.6,10.0385417 9.15294118,10.3739583 8.72941176,10.6854167 C8.23529412,11.06875 7.81176471,11.428125 7.43529412,11.7875 C7.83529412,10.4697917 8.25882353,9.415625 8.72941176,8.50520833 C8.84705882,8.265625 8.98823529,8.02604167 9.12941176,7.78645833 C9.2,7.66666667 9.15294118,7.52291667 9.03529412,7.42708333 C8.91764706,7.35520833 8.77647059,7.37916667 8.68235294,7.49895833 C7.97647059,8.625 7.12941176,9.559375 6.14117647,10.2541667 C5.95294118,10.3979167 5.71764706,10.565625 5.48235294,10.6614583 C5.27058824,10.709375 5.08235294,10.7333333 5.01176471,10.6135417 C4.96470588,10.5177083 4.98823529,10.3739583 5.03529412,10.2541667 C5.08235294,10.1104167 5.15294118,9.96666667 5.22352941,9.79895833 C5.34117647,9.559375 5.48235294,9.29583333 5.67058824,9.03229167 C5.88235294,8.72083333 6.11764706,8.409375 6.35294118,8.121875 C6.47058824,7.978125 6.58823529,7.85833333 6.70588235,7.7625 C6.77647059,7.690625 6.84705882,7.61875 6.91764706,7.546875 C6.98823529,7.475 7.05882353,7.403125 7.12941176,7.35520833 L7.2,7.28333333 L7.17647059,7.21145833 C7.15294118,7.16354167 7.10588235,7.115625 7.03529412,7.115625 L6.98823529,7.115625 C6.82352941,7.1875 6.65882353,7.259375 6.51764706,7.37916667 C6.35294118,7.49895833 6.21176471,7.61875 6.09411765,7.7625 C5.83529412,8.05 5.6,8.3375 5.41176471,8.625 C5.22352941,8.88854167 5.01176471,9.2 4.84705882,9.53541667 L4.8,9.60729167 C4.65882353,9.89479167 4.47058824,10.278125 4.54117647,10.6135417 C4.58823529,10.8291667 4.68235294,10.996875 4.87058824,11.06875 C5.2,11.2364583 5.67058824,11.1166667 5.97647059,10.9489583 C6.28235294,10.8052083 6.54117647,10.5895833 6.82352941,10.3979167 C7.12941176,10.1583333 7.36470588,9.91875 7.6,9.703125 C7.2,10.6854167 6.89411765,11.6916667 6.65882353,12.50625 C6.49411765,12.6739583 6.32941176,12.8416667 6.18823529,13.009375 C4.58823529,14.7583333 3.24705882,16.6510417 2.23529412,18.6635417 C1.92941176,19.2864583 1.67058824,19.8614583 1.50588235,20.4364583 L1.48235294,20.5322917 C1.34117647,21.0354167 1.17647059,21.5864583 1.24705882,22.1375 C1.27058824,22.3291667 1.34117647,22.6166667 1.57647059,22.784375 C1.71764706,22.9041667 1.90588235,22.9760417 2.11764706,22.9760417 C2.18823529,22.9760417 2.23529412,22.9760417 2.30588235,22.9520833 C2.91764706,22.85625 3.34117647,22.3291667 3.6,21.9458333 C4.23529412,21.1072917 4.65882353,20.1010417 5.05882353,19.11875 C5.12941176,18.975 5.17647059,18.83125 5.24705882,18.6875 C5.69411765,17.5854167 6.07058824,16.4114583 6.44705882,15.1416667 C6.56470588,14.734375 6.68235294,14.303125 6.8,13.8958333 C6.91764706,13.4885417 7.03529412,13.1052083 7.12941176,12.6979167 C8.35294118,11.4760417 9.67058824,10.4458333 11.0588235,9.60729167 C11.1294118,9.58333333 11.1764706,9.53541667 11.2470588,9.4875 C11.3882353,9.39166667 11.5529412,9.29583333 11.7176471,9.22395833 C11.8588235,9.22395833 11.8823529,9.128125 11.8352941,9.03229167 Z M6.32941176,13.871875 L6.18823529,14.3989583 C5.92941176,15.309375 5.64705882,16.2677083 5.31764706,17.178125 C5.15294118,17.7052083 4.94117647,18.25625 4.63529412,18.9270833 C4.54117647,19.11875 4.47058824,19.3104167 4.37647059,19.5260417 C4.23529412,19.8614583 4.09411765,20.196875 3.92941176,20.5322917 C3.69411765,20.9875 3.38823529,21.5145833 3.01176471,21.9697917 C2.84705882,22.1614583 2.68235294,22.3291667 2.44705882,22.425 C2.28235294,22.496875 2.04705882,22.5447917 1.88235294,22.4489583 C1.74117647,22.3291667 1.74117647,22.1614583 1.74117647,21.9697917 C1.74117647,21.70625 1.78823529,21.4666667 1.83529412,21.203125 C1.97647059,20.5322917 2.23529412,19.909375 2.42352941,19.4541667 C3.27058824,17.5854167 4.49411765,15.7166667 6.07058824,13.9197917 L6.23529412,13.7520833 C6.28235294,13.6802083 6.35294118,13.6322917 6.4,13.5604167 C6.4,13.6322917 6.37647059,13.7520833 6.32941176,13.871875 L6.44705882,13.8958333 L6.32941176,13.871875 Z" id="Shape"></path>
                </g>
            </g>
        </g>
    </g>
</svg>