<?xml version="1.0" encoding="UTF-8"?>
<svg width="45px" height="45px" viewBox="0 0 45 45" version="1.1" xmlns="http://www.w3.org/2000/svg" xmlns:xlink="http://www.w3.org/1999/xlink">
    <!-- Generator: Sketch 50.2 (55047) - http://www.bohemiancoding.com/sketch -->
    <title>money</title>
    <desc>Created with Sketch.</desc>
    <defs></defs>
    <g id="Page-1" stroke="none" stroke-width="1" fill="none" fill-rule="evenodd">
        <g id="Оформление.-Шаг-2.(life4_soul)" transform="translate(-551.000000, -991.000000)">
            <rect id="Rectangle-2-Copy-17" stroke="#FAD0DC" x="518.5" y="948.5" width="282" height="130" rx="5"></rect>
            <g id="money" transform="translate(551.000000, 991.000000)">
                <path d="M40.15,30.5 L40.15,30 C40.1,30.1818182 40.05,30.3181818 40,30.5 C40,30.4545455 40.05,30.4545455 40.15,30.5 Z" id="Shape"></path>
                <path d="M33,20 C31.8995984,20 31,20.8995984 31,22 C31,23.1004016 31.8995984,24 33,24 C34.1004016,24 35,23.1004016 35,22 C35,20.8995984 34.1004016,20 33,20 Z" id="Shape"></path>
                <path d="M18.9208731,22.5688623 L19.7230559,26 L20.8526603,26 L17.7421555,13.3712575 C17.6684857,13.0658683 17.7012278,12.751497 17.8485675,12.4820359 C17.9877217,12.2125749 18.2169168,12.0149701 18.4952251,11.9341317 C19.5347885,11.6287425 20.1568895,10.4431138 19.8785812,9.30239521 C19.8049113,8.99700599 19.845839,8.68263473 19.9849932,8.41317365 C20.1241473,8.14371257 20.3533424,7.94610778 20.6316508,7.86526946 L21,7.75748503 L21,5 L15,6.76047904 L18.7735334,22.2005988 C18.8390177,22.3173653 18.888131,22.4341317 18.9208731,22.5688623 Z" id="Shape"></path>
                <path d="M34.1891619,41.0366882 L27.4944463,41.0366882 C26.8643554,41.0366882 26.3567822,40.5190878 26.3567822,39.8765493 C26.3567822,39.2340109 26.8643554,38.7164105 27.4944463,38.7164105 L37.1733423,38.7164105 C37.7071693,38.7164105 38.1359812,38.2791274 38.1359812,37.7347546 C38.1359812,37.1903818 37.7071693,36.7530987 37.1733423,36.7530987 L27.4856951,36.7530987 C26.8556042,36.7530987 26.348031,36.2354983 26.348031,35.5929598 C26.348031,34.9504214 26.8556042,34.432821 27.4856951,34.432821 L39.0373612,34.432821 C39.5711882,34.432821 40,33.9955379 40,33.4511651 C40,32.9067923 39.5711882,32.4695092 39.0373612,32.4695092 L27.4856951,32.4695092 C26.8556042,32.4695092 26.348031,31.9519088 26.348031,31.3093704 C26.348031,30.6668319 26.8556042,30.1492315 27.4856951,30.1492315 L36.2982161,30.1492315 C36.8320431,30.1492315 37.2608549,29.7119484 37.2608549,29.1675756 C37.2608549,28.6232028 36.8320431,28.1859197 36.2982161,28.1859197 L19.0932346,28.1859197 C18.5769101,28.1859197 18.1218445,27.8289539 17.9905756,27.3113535 L17.4129923,25 L14,28.4893406 L14,40.5994051 L16.0215416,42.4020823 C16.4591047,42.7947447 17.0191855,43 17.5967688,43 L34.1804106,43 C34.7142376,43 35.1430495,42.5627169 35.1430495,42.0183441 C35.1518007,41.4739712 34.7142376,41.0366882 34.1891619,41.0366882 Z" id="Shape"></path>
                <path d="M21,18 L21,13 C20.7094017,13.3497164 20.3675214,13.6521739 20,13.8979206 L21,18 Z" id="Shape"></path>
                <path d="M6.85,40.1428571 C6.75714286,40.05 6.62857143,40 6.5,40 C6.37142857,40 6.24285714,40.05 6.15,40.15 C6.05714286,40.2428571 6,40.3714286 6,40.5 C6,40.6285714 6.05,40.7571429 6.15,40.85 C6.24285714,40.9428571 6.37142857,41 6.5,41 C6.62857143,41 6.75714286,40.95 6.85,40.85 C6.94285714,40.7571429 7,40.6285714 7,40.5 C7,40.3642857 6.95,40.2357143 6.85,40.1428571 Z" id="Shape" fill="#000000" fill-rule="nonzero"></path>
                <path d="M40.85,16.15 C40.7571429,16.0571429 40.6285714,16 40.5,16 C40.3714286,16 40.2428571,16.05 40.15,16.15 C40.0571429,16.2428571 40,16.3714286 40,16.5 C40,16.6285714 40.05,16.7571429 40.15,16.85 C40.2428571,16.9428571 40.3714286,17 40.5,17 C40.6285714,17 40.7571429,16.95 40.85,16.85 C40.9428571,16.7571429 41,16.6285714 41,16.5 C41,16.3714286 40.9428571,16.2428571 40.85,16.15 Z" id="Shape" fill="#000000" fill-rule="nonzero"></path>
                <path d="M44.8132411,0.186758893 C44.6976285,0.0711462451 44.5375494,0 44.3685771,0 L22.5,3.94940997e-17 C22.1531621,3.94940997e-17 21.8774704,0.2756917 21.8774704,0.622529644 L21.8774704,3.37055336 L13.2509881,5.68280632 C13.0909091,5.72727273 12.9575099,5.82509881 12.8685771,5.97628458 C12.7885375,6.11857708 12.7618577,6.28754941 12.8063241,6.44762846 L17.2173913,22.9001976 L13.0998024,27.0177866 L12.9219368,26.7509881 C12.4683794,26.0928854 11.7302372,25.701581 10.9387352,25.701581 L2.40118577,25.701581 C1.07608696,25.701581 0,26.777668 0,28.1027668 L0,42.5988142 C0,43.923913 1.07608696,45 2.40118577,45 L10.9387352,45 C12.041502,45 13.0019763,44.2529644 13.2687747,43.1768775 L13.3754941,42.75 L14.7628458,43.9594862 C15.527668,44.6264822 16.5148221,45 17.5286561,45 L44.3774704,45 C44.7243083,45 45,44.7243083 45,44.3774704 L45,0.622529644 C45,0.453557312 44.937747,0.302371542 44.8132411,0.186758893 Z M12.0948617,42.5988142 C12.0948617,43.2391304 11.5790514,43.7549407 10.9387352,43.7549407 L2.40118577,43.7549407 C1.76086957,43.7549407 1.24505929,43.2391304 1.24505929,42.5988142 L1.24505929,28.1027668 C1.24505929,27.4624506 1.76086957,26.9466403 2.40118577,26.9466403 L6.04743083,26.9466403 L6.04743083,37.458498 C6.04743083,37.805336 6.32312253,38.0810277 6.66996047,38.0810277 C7.01679842,38.0810277 7.29249012,37.805336 7.29249012,37.458498 L7.29249012,26.9466403 L10.9387352,26.9466403 C11.5790514,26.9466403 12.0948617,27.4624506 12.0948617,28.1027668 L12.0948617,42.5988142 Z M14.1758893,6.72332016 L21.8774704,4.66007905 L21.8774704,8.51086957 L21.0859684,8.7243083 C20.9258893,8.7687747 20.7924901,8.86660079 20.7124506,9.01778656 C20.6324111,9.16007905 20.6057312,9.32905138 20.6501976,9.48913043 C21.0326087,10.9031621 20.187747,12.3705534 18.7648221,12.7529644 C18.6047431,12.7974308 18.4713439,12.8952569 18.3824111,13.0464427 C18.3023715,13.1887352 18.2756917,13.3577075 18.3201581,13.5177866 L21.8774704,26.6798419 L19.5385375,26.6798419 L18.56917,22.8824111 C18.5513834,22.8023715 18.5158103,22.7312253 18.4624506,22.6600791 L18.4357708,22.6156126 L14.1758893,6.72332016 Z M21.8774704,11.4545455 L21.8774704,21.9041502 L19.6719368,13.7490119 L19.8675889,13.6511858 C20.4901186,13.3310277 21.0148221,12.8418972 21.3883399,12.2460474 L21.8774704,11.4545455 Z M34.3903162,43.7549407 L17.5286561,43.7549407 C16.8083004,43.7549407 16.1146245,43.4970356 15.5810277,43.0256917 L13.3399209,41.06917 L13.3399209,28.5385375 L17.6353755,24.243083 L18.4535573,27.4535573 C18.5247036,27.729249 18.7737154,27.9249012 19.0583004,27.9249012 L36.5424901,27.9249012 C37.3784585,27.9249012 38.0543478,28.6007905 38.0543478,29.4367589 C38.0543478,30.2727273 37.3784585,30.9486166 36.5424901,30.9486166 L27.5780632,30.9486166 C27.2312253,30.9486166 26.9555336,31.2243083 26.9555336,31.5711462 C26.9555336,31.9179842 27.2312253,32.1936759 27.5780632,32.1936759 L39.3171937,32.1936759 C40.1531621,32.1936759 40.8290514,32.8695652 40.8290514,33.7055336 C40.8290514,34.541502 40.1531621,35.2173913 39.3171937,35.2173913 L27.5780632,35.2173913 C27.2312253,35.2173913 26.9555336,35.493083 26.9555336,35.8399209 C26.9555336,36.1867589 27.2312253,36.4624506 27.5780632,36.4624506 L37.4140316,36.4624506 C38.25,36.4624506 38.9258893,37.1383399 38.9258893,37.9743083 C38.9258893,38.8102767 38.25,39.486166 37.4140316,39.486166 L27.5780632,39.486166 C27.2312253,39.486166 26.9555336,39.7618577 26.9555336,40.1086957 C26.9555336,40.4555336 27.2312253,40.7312253 27.5780632,40.7312253 L34.3814229,40.7312253 C35.2173913,40.7312253 35.8932806,41.4071146 35.8932806,42.243083 C35.9021739,43.0790514 35.2173913,43.7549407 34.3903162,43.7549407 Z M43.7549407,43.7549407 L36.729249,43.7549407 L36.8982213,43.3814229 C37.0583004,43.0256917 37.1472332,42.6432806 37.1472332,42.243083 C37.1472332,41.8428854 37.0671937,41.4693676 36.8982213,41.1047431 L36.729249,40.7312253 L37.4229249,40.7312253 C38.9436759,40.7312253 40.1798419,39.4950593 40.1798419,37.9743083 C40.1798419,37.5385375 40.0820158,37.1294466 39.8863636,36.7381423 L39.7440711,36.444664 L40.055336,36.3557312 C41.2470356,36.0266798 42.083004,34.9328063 42.083004,33.6966403 C42.083004,33.1007905 41.8962451,32.5316206 41.5405138,32.0513834 L41.4871542,31.9802372 L41.4871542,20.6324111 C41.4871542,20.2855731 41.2114625,20.0098814 40.8646245,20.0098814 C40.5177866,20.0098814 40.2420949,20.2855731 40.2420949,20.6324111 L40.2420949,31.0820158 L39.9219368,31.0108696 C39.7262846,30.9664032 39.5306324,30.9486166 39.3349802,30.9486166 L38.8903162,30.9486166 L39.0592885,30.5750988 C39.2193676,30.2193676 39.3083004,29.8369565 39.3083004,29.4367589 C39.3083004,27.9160079 38.0721344,26.6798419 36.5513834,26.6798419 L33.8211462,26.6798419 L35.0128458,26.1640316 C36.4802372,25.5326087 37.4318182,24.0918972 37.4318182,22.5 C37.4318182,20.3033597 35.6442688,18.506917 33.4387352,18.506917 C31.2332016,18.506917 29.4456522,20.2944664 29.4456522,22.5 C29.4456522,24.1007905 30.3972332,25.541502 31.8646245,26.1640316 L33.0563241,26.6798419 L26.6264822,26.6798419 L26.6264822,9.28458498 L26.8399209,9.24011858 C28.3250988,8.91996047 29.4990119,7.74604743 29.8280632,6.25197628 L29.8814229,6.04743083 L36.9960474,6.04743083 L37.0405138,6.26086957 C37.3606719,7.74604743 38.534585,8.91996047 40.0286561,9.24901186 L40.2420949,9.29347826 L40.2420949,12.2727273 C40.2420949,12.6195652 40.5177866,12.8952569 40.8646245,12.8952569 C41.2114625,12.8952569 41.4871542,12.6195652 41.4871542,12.2727273 L41.4871542,8.71541502 C41.4871542,8.36857708 41.2114625,8.09288538 40.8646245,8.09288538 C39.3972332,8.09288538 38.2055336,6.90118577 38.2055336,5.43379447 C38.2055336,5.08695652 37.9298419,4.81126482 37.583004,4.81126482 L29.3033597,4.81126482 C28.9565217,4.81126482 28.68083,5.08695652 28.68083,5.43379447 C28.68083,6.90118577 27.4891304,8.09288538 26.0217391,8.09288538 C25.6749012,8.09288538 25.3992095,8.36857708 25.3992095,8.71541502 L25.3992095,26.6798419 L23.1225296,26.6798419 L23.1225296,1.24505929 L43.7549407,1.24505929 L43.7549407,43.7549407 Z M33.4387352,25.2480237 C31.9268775,25.2480237 30.6907115,24.020751 30.6907115,22.5 C30.6907115,20.9881423 31.9179842,19.7519763 33.4387352,19.7519763 C34.9594862,19.7519763 36.1867589,20.979249 36.1867589,22.5 C36.1867589,24.0118577 34.9505929,25.2480237 33.4387352,25.2480237 Z" id="Shape" fill="#000000" fill-rule="nonzero"></path>
            </g>
        </g>
    </g>
</svg>