<svg xmlns="http://www.w3.org/2000/svg" width="160" height="160" viewBox="0 0 160 160">
    <g fill="none" fill-rule="evenodd" stroke-linecap="round" stroke-linejoin="round" stroke-width="4">
        <path stroke="#69D19D" d="M86.54 46.818v-.959h3.835v.959m-3.835 5.754v.959h3.835v-.96m17.039-10.347v-.959h3.836v.96m-3.836 5.753v.96h3.836v-.96m16.04-10.223v-.959h3.835v.96m-3.835 5.754v.958h3.835v-.959m-62.334 3.142v-.959h-3.835v.96m3.835 5.753v.959h-3.835v-.96m-17.04-10.346v-.96h-3.835v.96m3.835 5.754v.959h-3.835v-.96m-16.04-10.222v-.959h-3.835v.959m3.835 5.754v.959h-3.835v-.96"/>
        <path stroke="#ED98BF" d="M38.504 74.027c-1.246 2.492-3.958 4.867-7.197 4.867h-4.971m94.91-4.867c1.246 2.492 4.436 4.867 7.674 4.867h4.494m-75.441 2.382c-1.057 2.416-1.628 2.485-4.867 2.485h-7.301c-4.112 0-7.301-4.07-7.301-9.734v-2.434m41.371 12.169c-1.978 4.106-4.061 4.867-7.301 4.867h-7.301c-4.112 0-7.3-3.24-7.3-7.352v-2.382m43.804 2.433c1.057 2.567 2.544 2.434 5.788 2.434h7.25c4.111 0 6.431-4.411 6.431-9.735m-41.371 4.867v4.867c1.369 3.955 4.056 4.867 7.301 4.867h7.301c4.112 0 7.3-3.188 7.3-7.3v-2.434m19.469-4.867v-2.434"/>
        <path stroke="#484848" d="M157.75 54.558S129.355 30.22 109.078 30.22c-16.524 0-14.906 7.45-29.203 7.301-14.602-.152-12.609-7.3-29.203-7.3C30.395 30.22 2 54.557 2 54.557S23.294 130 79.875 130c55.364 0 77.875-75.44 77.875-75.44z"/>
        <path stroke="#484848" d="M14.168 59.426s28.893 4.867 65.707 4.867c35.977 0 65.707-4.867 65.707-4.867"/>
        <path stroke="#484848" d="M145.582 59.426s-13.689 41.37-65.707 41.37c-52.626 0-65.707-41.37-65.707-41.37M123.68 45.602c-8.923-8.518-17.035-4.867-17.035-4.867"/>
    </g>
</svg>
