<svg width="71" height="23" viewBox="0 0 71 23" xmlns="http://www.w3.org/2000/svg">
    <title>
        by excv copy
    </title>
    <g fill-rule="nonzero" fill="none">
        <path d="M27.628 1H17.372C17.173 1 17 .81 17 .595v-.19c0-.216.173-.405.372-.405h10.256c.199 0 .372.19.372.405v.19c0 .243-.173.405-.372.405z" fill="#010101"/>
        <path d="M56.852 9.835a.491.491 0 0 0-.668 0c-1.013.92-2.323 1.394-3.831 1.394-2.942 0-5.34-2.116-5.34-4.704 0-2.563 2.398-4.654 5.34-4.654 1.508 0 2.818.473 3.831 1.394.198.174.47.174.668 0 .099-.1.148-.2.148-.299 0-.1-.05-.199-.148-.299C55.665 1.597 54.058 1 52.328 1 48.843 1 46 3.464 46 6.5s2.843 5.5 6.328 5.5c1.73 0 3.312-.597 4.524-1.618.099-.1.148-.199.148-.298 0-.075-.05-.15-.148-.25z" fill="#010101"/>
        <path d="M49.848 9.941a4.542 4.542 0 0 1-1-.863L48.758 9 48 9.98l.09.079c.334.353.698.627 1.062.902l.09.039L50 9.98l-.152-.039z" fill="#E82022"/>
        <path d="M70.798 1.118l-.173-.074c-.174-.1-.397-.025-.496.173l-4.63 9.47-4.629-9.47a.403.403 0 0 0-.495-.173l-.173.074a.404.404 0 0 0-.173.496l4.976 10.188c.025.099.099.148.198.173.025.025.099.025.124.025h.297c.05 0 .099-.025.148-.025a.3.3 0 0 0 .174-.173l4.976-10.188c.148-.174.074-.397-.124-.496z" fill="#010101"/>
        <path d="M23.628 6h-6.256C17.174 6 17 5.81 17 5.595v-.19c0-.216.174-.405.372-.405h6.256c.198 0 .372.19.372.405v.19c0 .216-.174.405-.372.405z" fill="#010101"/>
        <path d="M27.628 11H17.372c-.199 0-.372-.19-.372-.405v-.19c0-.216.173-.405.372-.405h10.256c.199 0 .372.19.372.405v.19c0 .216-.173.405-.372.405z" fill="#010101"/>
        <path d="M38.662 5L42.885.764c.153-.15.153-.4 0-.526l-.127-.125c-.152-.15-.407-.15-.534 0L38 4.348l.662.652z" fill="#E82022"/>
        <path d="M36.314 5C34.6 6.744 32.86 8.462 31.12 10.206c-.159.156-.159.417 0 .547l.132.13c.158.156.422.156.553 0C33.52 9.139 35.286 7.395 37 5.65c-.211-.208-.448-.417-.686-.651z" fill="#010101"/>
        <path d="M32.111.756l10.133 10.133a.36.36 0 0 0 .52 0l.125-.124a.36.36 0 0 0 0-.52L32.756.11a.36.36 0 0 0-.52 0l-.125.124a.36.36 0 0 0 0 .52z" fill="#010101"/>
        <g fill="#000">
            <path d="M2.87 10.086c.589-.191 1.083-.622 1.295-1.126.14-.335.14-.694.023-.958-.164-.311-.517-.36-.776-.36-.612.025-1.247.288-1.906.815-.07.048-.118.096-.188.168 0-.024.023-.024.023-.048.259-.48.518-.982.777-1.461.094-.192.188-.384.306-.575C3.224 5.079 4 3.785 4.8 2.61c.118-.167.259-.359.376-.527.118-.167.26-.359.377-.527.094-.143.212-.287.33-.431.164-.216.329-.431.47-.67.047-.049.047-.12.023-.192-.023-.072-.094-.12-.164-.144-.07 0-.118.024-.141.048-.26.263-.471.527-.66.814l-.093.12a11.07 11.07 0 0 0-.706.958c-.47.647-.894 1.318-1.294 1.941-.4.647-.8 1.342-1.177 2.013A14.69 14.69 0 0 0 1.6 7.068c-.188.36-.353.695-.541 1.054-.424.814-.753 1.557-.988 2.252a.29.29 0 0 0 .164.311c.024 0 .07.024.094.024.095 0 .165-.048.212-.143a5.66 5.66 0 0 1 .47-.767c0 .096.048.168.118.216.542.407 1.389.191 1.742.071zm.024-1.844c.259-.072.518-.144.753-.072.047.024.07.048.094.096.047.12.024.287-.047.43-.118.336-.447.648-.918.84-.517.191-1.105.167-1.623.12h-.094c.447-.6 1.059-1.15 1.835-1.414z"/>
            <path d="M11.835 9.032c-.047-.096-.164-.143-.259-.096a2.136 2.136 0 0 0-.329.168c-.376.168-.753.36-1.13.6-.517.335-.964.67-1.388.981a16.57 16.57 0 0 0-1.294 1.102c.4-1.317.824-2.371 1.294-3.282.118-.24.26-.479.4-.719.071-.12.024-.263-.094-.359-.117-.072-.259-.048-.353.072-.706 1.126-1.553 2.06-2.54 2.755-.19.144-.424.312-.66.407-.211.048-.4.072-.47-.047-.047-.096-.024-.24.023-.36.047-.144.118-.287.189-.455.117-.24.258-.503.447-.767.211-.311.447-.623.682-.91.118-.144.235-.264.353-.36l.212-.215c.07-.072.14-.144.211-.192l.071-.072-.024-.072c-.023-.047-.07-.095-.14-.095h-.048a1.83 1.83 0 0 0-.47.263c-.165.12-.306.24-.424.384a7.287 7.287 0 0 0-.682.862c-.188.264-.4.575-.565.91l-.047.072c-.141.288-.33.671-.259 1.007.047.215.141.383.33.455.329.167.8.048 1.105-.12.306-.144.565-.36.848-.551.305-.24.54-.48.776-.695-.4.982-.706 1.989-.941 2.803-.165.168-.33.336-.47.503-1.6 1.75-2.942 3.642-3.954 5.655-.306.622-.564 1.197-.73 1.772l-.023.096c-.14.503-.306 1.054-.235 1.605.024.192.094.48.33.647a.83.83 0 0 0 .54.192c.071 0 .118 0 .189-.024.612-.096 1.035-.623 1.294-1.006.635-.839 1.059-1.845 1.459-2.827.07-.144.117-.288.188-.431.447-1.103.824-2.277 1.2-3.546.118-.408.235-.839.353-1.246.118-.407.235-.79.33-1.198a20.736 20.736 0 0 1 3.929-3.09c.07-.025.117-.073.188-.12.141-.096.306-.192.47-.264.142 0 .165-.096.118-.192zm-5.506 4.84l-.14.527c-.26.91-.542 1.869-.871 2.78a14.754 14.754 0 0 1-.683 1.748c-.094.192-.164.383-.259.599-.14.335-.282.67-.447 1.006-.235.456-.54.983-.917 1.438-.165.191-.33.36-.565.455-.165.072-.4.12-.565.024-.14-.12-.14-.288-.14-.48 0-.263.046-.502.093-.766.141-.67.4-1.294.589-1.749.847-1.869 2.07-3.737 3.647-5.534l.164-.168c.047-.072.118-.12.165-.192a.952.952 0 0 1-.07.312l.117.024-.118-.024z"/>
        </g>
    </g>
</svg>
