<svg width="45" height="45" viewBox="0 0 45 45" xmlns="http://www.w3.org/2000/svg">
    <title>
        money
    </title>
    <g transform="translate(-551 -991)" fill="none" fill-rule="evenodd">
        <rect stroke="#FAD0DC" x="518.5" y="948.5" width="282" height="130" rx="5"/>
        <path d="M591.15 1021.5v-.5c-.05.182-.1.318-.15.5 0-.045.05-.045.15 0z"/>
        <path d="M584 1011c-1.1 0-2 .9-2 2s.9 2 2 2 2-.9 2-2-.9-2-2-2z"/>
        <path d="M569.92 1013.569l.803 3.431h1.13l-3.11-12.629c-.075-.305-.042-.62.106-.889.139-.27.368-.467.646-.548 1.04-.305 1.662-1.49 1.384-2.632a1.28 1.28 0 0 1 .106-.889c.14-.27.368-.467.647-.548l.368-.108V996l-6 1.76 3.774 15.44c.065.117.114.234.147.369z"/>
        <path d="M585.19 1032.037h-6.696c-.63 0-1.137-.518-1.137-1.16 0-.643.507-1.16 1.137-1.16h9.68a.97.97 0 0 0 .962-.982.97.97 0 0 0-.963-.982h-9.687c-.63 0-1.138-.518-1.138-1.16 0-.643.508-1.16 1.138-1.16h11.551a.97.97 0 0 0 .963-.982.97.97 0 0 0-.963-.981h-11.551c-.63 0-1.138-.518-1.138-1.16 0-.643.508-1.16 1.138-1.16h8.812a.97.97 0 0 0 .963-.982.97.97 0 0 0-.963-.982h-17.205c-.516 0-.971-.357-1.102-.875l-.578-2.311-3.413 3.49v12.11l2.022 1.802c.437.393.997.598 1.575.598h16.583a.97.97 0 0 0 .963-.982.962.962 0 0 0-.954-.981z"/>
        <path d="M572 1009v-5a4.7 4.7 0 0 1-1 .898l1 4.102z"/>
        <path d="M557.85 1031.143a.498.498 0 0 0-.35-.143.476.476 0 0 0-.35.15.505.505 0 0 0-.15.35c0 .129.05.257.15.35.093.093.221.15.35.15.129 0 .257-.05.35-.15a.505.505 0 0 0 .15-.35.48.48 0 0 0-.15-.357z" fill="#000" fill-rule="nonzero"/>
        <path d="M591.85 1007.15a.505.505 0 0 0-.35-.15.476.476 0 0 0-.35.15.505.505 0 0 0-.15.35c0 .129.05.257.15.35.093.093.221.15.35.15.129 0 .257-.05.35-.15a.505.505 0 0 0 .15-.35.505.505 0 0 0-.15-.35z" fill="#000" fill-rule="nonzero"/>
        <path d="M595.813 991.187a.633.633 0 0 0-.444-.187H573.5a.619.619 0 0 0-.623.623v2.748l-8.626 2.312a.63.63 0 0 0-.445.765l4.411 16.452-4.117 4.118-.178-.267a2.407 2.407 0 0 0-1.983-1.05H553.4a2.403 2.403 0 0 0-2.401 2.402v14.496a2.403 2.403 0 0 0 2.401 2.401h8.538a2.397 2.397 0 0 0 2.33-1.823l.106-.427 1.388 1.21a4.222 4.222 0 0 0 2.766 1.04h26.848a.619.619 0 0 0 .623-.623v-43.754a.579.579 0 0 0-.187-.436zm-32.718 42.412c0 .64-.516 1.156-1.156 1.156H553.4c-.64 0-1.156-.516-1.156-1.156v-14.496c0-.64.516-1.156 1.156-1.156h3.646v10.511c0 .347.276.623.623.623a.619.619 0 0 0 .622-.623v-10.511h3.647c.64 0 1.156.515 1.156 1.156v14.496zm2.08-35.876l7.702-2.063v3.85l-.791.214a.589.589 0 0 0-.374.294.623.623 0 0 0-.062.471 2.667 2.667 0 0 1-1.885 3.264.63.63 0 0 0-.445.765l3.557 13.162h-2.338l-.97-3.798a.57.57 0 0 0-.107-.222l-.026-.044-4.26-15.893zm7.702 4.732v10.45l-2.205-8.156.196-.098a3.917 3.917 0 0 0 1.52-1.405l.49-.791zm12.513 32.3H568.53a2.94 2.94 0 0 1-1.948-.73l-2.241-1.956v-12.53l4.295-4.296.819 3.21c.07.276.32.472.604.472h17.484a1.51 1.51 0 0 1 1.512 1.512 1.51 1.51 0 0 1-1.512 1.512h-8.964a.619.619 0 0 0-.622.622c0 .347.275.623.622.623h11.74a1.51 1.51 0 0 1 1.511 1.512 1.51 1.51 0 0 1-1.512 1.511h-11.739a.619.619 0 0 0-.622.623c0 .347.275.622.622.622h9.836a1.51 1.51 0 0 1 1.512 1.512 1.51 1.51 0 0 1-1.512 1.512h-9.836a.619.619 0 0 0-.622.623c0 .347.275.622.622.622h6.803a1.51 1.51 0 0 1 1.512 1.512 1.503 1.503 0 0 1-1.503 1.512zm9.365 0h-7.026l.17-.374a2.76 2.76 0 0 0 .248-1.138c0-.4-.08-.774-.249-1.138l-.169-.374h.694a2.76 2.76 0 0 0 2.463-3.993l-.142-.293.311-.09a2.77 2.77 0 0 0 2.028-2.658c0-.596-.187-1.165-.542-1.646l-.054-.07v-11.349a.619.619 0 0 0-.622-.622.619.619 0 0 0-.623.622v10.45l-.32-.071a2.635 2.635 0 0 0-.587-.062h-.445l.17-.374a2.76 2.76 0 0 0 .248-1.138 2.76 2.76 0 0 0-2.757-2.757h-2.73l1.192-.516a3.993 3.993 0 0 0 2.419-3.664 3.993 3.993 0 1 0-7.986 0c0 1.6.951 3.042 2.419 3.664l1.191.516h-6.43v-17.395l.214-.045a3.922 3.922 0 0 0 2.988-2.988l.053-.205h7.115l.045.214a3.922 3.922 0 0 0 2.988 2.988l.213.044v2.98c0 .347.276.622.623.622a.619.619 0 0 0 .622-.622v-3.558a.619.619 0 0 0-.622-.622 2.66 2.66 0 0 1-2.66-2.66.619.619 0 0 0-.622-.622h-8.28a.619.619 0 0 0-.622.623 2.66 2.66 0 0 1-2.66 2.659.619.619 0 0 0-.622.622v17.965h-2.276v-25.435h20.632v42.51zm-10.316-18.507a2.75 2.75 0 0 1-2.748-2.748 2.75 2.75 0 0 1 2.748-2.748 2.744 2.744 0 0 1 2.748 2.748 2.756 2.756 0 0 1-2.748 2.748z" fill="#000" fill-rule="nonzero"/>
    </g>
</svg>
