<?xml version="1.0" encoding="UTF-8"?><!DOCTYPE svg PUBLIC "-//W3C//DTD SVG 1.1//EN" "http://www.w3.org/Graphics/SVG/1.1/DTD/svg11.dtd"><svg xmlns="http://www.w3.org/2000/svg"><defs>
        <style>
            .cls-1{fill:#c0d5b3;fill-rule:evenodd}
        </style>
    
        <style>
            .cls-1{fill:#c0d5b3;fill-rule:evenodd}
        </style>
    </defs><symbol id="icon-check-mark" viewBox="0 0 490.05 490.05">
    <path d="M418.275 418.275c95.7-95.7 95.7-250.8 0-346.5s-250.8-95.7-346.5 0-95.7 250.8 0 346.5 250.9 95.7 346.5 0zm-261.1-210.7l55.1 55.1 120.7-120.6 42.7 42.7-120.6 120.6-42.8 42.7-42.7-42.7-55.1-55.1 42.7-42.7z"/>
</symbol><symbol id="icon-down-arrow" viewBox="0 0 129 129">
    <path d="M121.3 34.6c-1.6-1.6-4.2-1.6-5.8 0l-51 51.1-51.1-51.1c-1.6-1.6-4.2-1.6-5.8 0-1.6 1.6-1.6 4.2 0 5.8l53.9 53.9c.8.8 1.8 1.2 2.9 1.2 1 0 2.1-.4 2.9-1.2l53.9-53.9c1.7-1.6 1.7-4.2.1-5.8z"/>
</symbol><symbol id="icon-fb" viewBox="0 0 430.113 430.114">
    <path d="M158.081 83.3v59.218h-43.385v72.412h43.385v215.183h89.122V214.936h59.805s5.601-34.721 8.316-72.685H247.54V92.74c0-7.4 9.717-17.354 19.321-17.354h48.557V.001h-66.021C155.878-.004 158.081 72.48 158.081 83.3z"/>
</symbol><symbol id="icon-i" viewBox="0 0 23.625 23.625">
    <path d="M11.812 0C5.289 0 0 5.289 0 11.812s5.289 11.813 11.812 11.813 11.813-5.29 11.813-11.813S18.335 0 11.812 0zm2.459 18.307c-.608.24-1.092.422-1.455.548a3.838 3.838 0 0 1-1.262.189c-.736 0-1.309-.18-1.717-.539s-.611-.814-.611-1.367c0-.215.015-.435.045-.659a8.23 8.23 0 0 1 .147-.759l.761-2.688c.067-.258.125-.503.171-.731.046-.23.068-.441.068-.633 0-.342-.071-.582-.212-.717-.143-.135-.412-.201-.813-.201-.196 0-.398.029-.605.09-.205.063-.383.12-.529.176l.201-.828c.498-.203.975-.377 1.43-.521a4.225 4.225 0 0 1 1.29-.218c.731 0 1.295.178 1.692.53.395.353.594.812.594 1.376 0 .117-.014.323-.041.617a4.129 4.129 0 0 1-.152.811l-.757 2.68a7.582 7.582 0 0 0-.167.736 3.892 3.892 0 0 0-.073.626c0 .356.079.599.239.728.158.129.435.194.827.194.185 0 .392-.033.626-.097.232-.064.4-.121.506-.17l-.203.827zm-.134-10.878a1.807 1.807 0 0 1-1.275.492c-.496 0-.924-.164-1.28-.492a1.57 1.57 0 0 1-.533-1.193c0-.465.18-.865.533-1.196a1.812 1.812 0 0 1 1.28-.497c.497 0 .923.165 1.275.497.353.331.53.731.53 1.196 0 .467-.177.865-.53 1.193z"/>
</symbol><symbol id="icon-instagram" viewBox="0 0 22 22">
    
    <title>
        social_in
    </title>
    <path class="cls-1" d="M11 2c2.94 0 3.28 0 4.44.07a5.9 5.9 0 0 1 2 .38 3.39 3.39 0 0 1 1.26.82 3.44 3.44 0 0 1 .82 1.26 6.13 6.13 0 0 1 .38 2c.1 1.18.1 1.53.1 4.47s0 3.28-.06 4.44a6.07 6.07 0 0 1-.38 2 3.48 3.48 0 0 1-.82 1.27 3.52 3.52 0 0 1-1.26.82 6.15 6.15 0 0 1-2 .38c-1.2.09-1.54.09-4.48.09H6.56a6.15 6.15 0 0 1-2-.38 3.44 3.44 0 0 1-1.26-.82 3.48 3.48 0 0 1-.82-1.27 6.07 6.07 0 0 1-.38-2C2 14.28 2 13.93 2 11s0-3.29.07-4.45a6.13 6.13 0 0 1 .38-2 3.44 3.44 0 0 1 .82-1.26 3.32 3.32 0 0 1 1.26-.82 5.9 5.9 0 0 1 2.05-.38C7.72 2 8.06 2 11 2m0-2C8 0 7.64 0 6.47.07A8 8 0 0 0 3.8.58a5.34 5.34 0 0 0-1.95 1.27A5.39 5.39 0 0 0 .58 3.79a8 8 0 0 0-.51 2.67C0 7.64 0 8 0 11s0 3.36.07 4.53a8 8 0 0 0 .51 2.67 5.42 5.42 0 0 0 1.27 1.95 5.34 5.34 0 0 0 1.95 1.27 8.31 8.31 0 0 0 2.67.51C7.64 22 8 22 11 22s3.36 0 4.53-.06a8.31 8.31 0 0 0 2.67-.51 5.34 5.34 0 0 0 1.95-1.27 5.42 5.42 0 0 0 1.27-1.95 8 8 0 0 0 .51-2.67C22 14.36 22 14 22 11s0-3.36-.07-4.54a8 8 0 0 0-.51-2.67 5.39 5.39 0 0 0-1.27-1.94A5.34 5.34 0 0 0 18.2.58a8 8 0 0 0-2.67-.51C14.36 0 14 0 11 0"/>
    <path class="cls-1" d="M11 5.35A5.65 5.65 0 1 0 16.65 11 5.65 5.65 0 0 0 11 5.35m0 9.31A3.67 3.67 0 1 1 14.67 11 3.67 3.67 0 0 1 11 14.66"/>
    <path class="cls-1" d="M18.19 5.13a1.32 1.32 0 1 1-1.32-1.32 1.32 1.32 0 0 1 1.32 1.32"/>
</symbol><symbol id="icon-left-arrow" viewBox="0 0 44.238 44.238">
    <path d="M22.119 44.237C9.922 44.237 0 34.315 0 22.119S9.922.001 22.119.001s22.119 9.922 22.119 22.118-9.924 22.118-22.119 22.118zm0-42.736C10.75 1.501 1.5 10.75 1.5 22.119c0 11.368 9.25 20.618 20.619 20.618s20.619-9.25 20.619-20.618c0-11.369-9.25-20.618-20.619-20.618z"/>
    <path d="M24.667 29.884a.74.74 0 0 1-.53-.22l-7.328-7.334a.752.752 0 0 1 0-1.061l7.328-7.333a.75.75 0 1 1 1.061 1.061L18.4 21.8l6.798 6.805a.752.752 0 0 1 0 1.061.75.75 0 0 1-.531.218z"/>
</symbol><symbol id="icon-play" viewBox="0 0 510 510">
    <path d="M255 0C114.75 0 0 114.75 0 255s114.75 255 255 255 255-114.75 255-255S395.25 0 255 0zm-51 369.75v-229.5L357 255 204 369.75z"/>
</symbol><symbol id="icon-vk" viewBox="0 0 22 22">
    
    <title>
        social_vk
    </title>
    <path class="cls-1" d="M18.22 11.3s2.89-4.08 3.17-5.42c.1-.48-.11-.75-.61-.75h-2.51a.91.91 0 0 0-.95.62 22.85 22.85 0 0 1-3 4.7c-.53.59-.8.77-1.09.77s-.34-.2-.34-.73V5.84c0-.65-.08-.84-.61-.84h-4c-.31 0-.5.18-.5.42 0 .61.94.75.94 2.41v3.43c0 .69 0 1-.37 1-.86 0-2.9-3-4.05-6.33C4 5.19 3.79 5 3.14 5H.63a.6.6 0 0 0-.63.61c0 .67.78 3.77 3.87 7.92 2.06 2.8 4.78 4.31 7.23 4.31 1.49 0 1.85-.25 1.85-.88v-2.14c0-.54.22-.77.52-.77s.95.11 2.37 1.51c1.69 1.61 1.8 2.28 2.72 2.28h2.81c.29 0 .56-.13.56-.61s-.82-1.76-2.09-3.1c-.51-.69-1.35-1.44-1.62-1.78s-.27-.63 0-1"/>
</symbol></svg>