<?xml version="1.0" encoding="UTF-8"?><!DOCTYPE svg PUBLIC "-//W3C//DTD SVG 1.1//EN" "http://www.w3.org/Graphics/SVG/1.1/DTD/svg11.dtd"><svg xmlns="http://www.w3.org/2000/svg"><defs>
        <style>
            .cls-1{fill:#c0d5b3;fill-rule:evenodd}
        </style>
    
        <style>
            .cls-1{fill:#c0d5b3;fill-rule:evenodd}
        </style>
    </defs><symbol id="icon-bouquet" viewBox="0 0 39 53">
    <title>
        bouquet
    </title>
    <path d="M38.134 13.68a4.442 4.442 0 0 0-2.235-1.6c-.159-1.23-1.02-1.586-1.113-1.648a2.61 2.61 0 0 0 .724-1.64c.114-1.657-1.227-3.46-2.87-3.857a2.732 2.732 0 0 0-1.814.178 2.485 2.485 0 0 0-.796-1.22c-.963-.824-2.557-1-3.875-.495-.414-.484-.934-.869-1.513-1.072a2.733 2.733 0 0 0-1.817-.006 2.63 2.63 0 0 0-.93-1.532c-1.303-1.06-3.577-1.049-4.867.025-.3.25-.771.754-.914 1.542a2.734 2.734 0 0 0-1.817.024c-1.587.576-2.714 2.514-2.411 4.148.07.38.28 1.035.907 1.55-.079.067-.769.552-.906 1.65a42.52 42.52 0 0 0-2.339.81c-.725.268-1.434.53-2.198.765a.77.77 0 0 0 .285-.516.78.78 0 0 0-.702-.855c-1.45-.153-1.794-.761-1.827-1.244-.062-.897.781-2.03 1.67-2.244.479-.117 1.174.02 1.763 1.327v.001a.798.798 0 0 0 1.045.396.77.77 0 0 0 .403-1.024c-.513-1.138-.397-1.9.345-2.266a.77.77 0 0 0 .353-1.041.798.798 0 0 0-1.062-.347c-.712.35-1.2.912-1.412 1.624a2.735 2.735 0 0 0-1.814-.178c-1.643.398-2.984 2.2-2.87 3.856a2.61 2.61 0 0 0 .725 1.641c-.121.08-.886.451-1.144 1.8a4.44 4.44 0 0 0-3.017 5.115C1.224 22.779 4.16 32.562 11.11 37.109v2.737a2.48 2.48 0 0 0 1.137 2.08c.23.15.48.26.739.33l-2.198 3.005c-1.19 1.628-.912 3.784.663 5.127.28.239.58.462.89.673.556.379.945.016 1.099-.205a.767.767 0 0 0-.208-1.078 8.009 8.009 0 0 1-.743-.562c-.974-.831-1.141-2.057-.415-3.05l2.435-3.33-1.005 3.1c-.43 1.328.32 2.752 1.674 3.175.258.08 2.459.665 3.235-1.643l1.106-3.411 1.106 3.411c.7 2.27 2.977 1.724 3.236 1.643a2.547 2.547 0 0 0 1.505-1.248c.317-.601.377-1.285.169-1.927l-1.005-3.1 2.435 3.33c.726.993.56 2.219-.415 3.05-1.193 1.018-3.381 2.231-7.03 2.231-1.25 0-2.418-.142-3.47-.421a.792.792 0 0 0-.97.546.775.775 0 0 0 .557.952c1.186.316 2.492.476 3.882.476 4.139 0 6.672-1.42 8.07-2.612 1.573-1.343 1.852-3.499.662-5.126l-2.198-3.007c.259-.07.508-.178.739-.328a2.48 2.48 0 0 0 1.137-2.081v-2.702c2.087-1.356 3.96-3.28 5.573-5.73a.768.768 0 0 0-.235-1.074.8.8 0 0 0-1.094.231c-1.357 2.06-2.9 3.71-4.599 4.923a2.516 2.516 0 0 0-.782-.81 2.582 2.582 0 0 0-2.396-.221l-2.2.908a4.043 4.043 0 0 0-2.677-1.006c-1.027 0-1.965.38-2.676 1.006l-2.2-.908a2.581 2.581 0 0 0-2.396.222 2.52 2.52 0 0 0-.768.784c-6.116-4.384-8.782-13.373-9.836-18.433a2.833 2.833 0 0 1 .486-2.264 2.888 2.888 0 0 1 1.981-1.178c2.57-.339 4.311-.982 5.996-1.603 2.407-.889 4.68-1.728 9.362-1.752 4.684-.027 6.963.791 9.38 1.655 1.691.604 3.44 1.228 6.013 1.541a2.889 2.889 0 0 1 1.993 1.157c.487.658.669 1.46.511 2.26-.565 2.864-1.654 7.1-3.633 11.014a.77.77 0 0 0 .357 1.041.798.798 0 0 0 1.06-.35c2.058-4.07 3.186-8.452 3.77-11.41a4.405 4.405 0 0 0-.784-3.467zm-14.97 22.975l1.844-.76a.965.965 0 0 1 .907.083c.274.179.43.466.43.788v3.08c0 .322-.156.61-.43.788a.965.965 0 0 1-.907.084l-1.844-.761a3.854 3.854 0 0 0 0-3.302zm-.788 4.66l1.65 5.092c.18.533-.123 1.062-.646 1.225a.999.999 0 0 1-1.248-.634l-1.583-4.884c.62-.161 1.827-.799 1.827-.799zm-2.857-5.397c1.342 0 2.433 1.071 2.433 2.388s-1.091 2.388-2.433 2.388c-1.342 0-2.434-1.071-2.434-2.388s1.092-2.388 2.434-2.388zm-1.031 6.196l-1.583 4.884c-.08.247-.436.884-1.248.634-.813-.25-.726-.978-.646-1.225l1.65-5.091s1.207.637 1.827.798zm-5.797-5.348c0-.322.157-.61.43-.788a.965.965 0 0 1 .908-.084l1.844.761a3.854 3.854 0 0 0 0 3.301l-1.844.762a.964.964 0 0 1-.907-.084.927.927 0 0 1-.43-.788v-3.08zM20.238 8.69c-.254-.004-1.244 0-1.47.006a.957.957 0 0 1-.261-.658c0-.537.445-.974.993-.974s.994.437.994.974a.96.96 0 0 1-.256.652zm5.3-2.504c-.15.864-1.141 1.05-1.946 1.055a.784.784 0 0 0-.787.78.784.784 0 0 0 .79.773h.005c.702-.007 1.24.13 1.573.39a24.379 24.379 0 0 0-3.204-.422 2.49 2.49 0 0 0 .107-.723c0-1.394-1.155-2.528-2.576-2.528-1.42 0-2.576 1.134-2.576 2.528 0 .255.038.504.112.74a24.594 24.594 0 0 0-3.16.436c.332-.245.856-.375 1.532-.379a.784.784 0 0 0 .787-.78.784.784 0 0 0-.79-.772h-.033c-.8 0-1.772-.182-1.93-1.036-.163-.884.545-2.102 1.403-2.414.839-.304 1.5.445 1.905 1.127a.8.8 0 0 0 1.082.278.773.773 0 0 0 .393-.67.76.76 0 0 0-.109-.392c-.406-.682-.747-1.613-.065-2.18.699-.582 2.128-.59 2.832-.015.688.56.358 1.495-.041 2.181a.763.763 0 0 0-.104.384c0 .27.143.532.4.675a.8.8 0 0 0 1.078-.29c.4-.686 1.051-1.441 1.893-1.145.862.302 1.583 1.513 1.429 2.399zm8.393 2.5c-.033.483-.377 1.091-1.826 1.244a.78.78 0 0 0-.702.855c.015.142.07.271.151.379-.75-.225-1.45-.475-2.165-.73a43.451 43.451 0 0 0-2.256-.758c-.241-1.088-.844-1.602-.926-1.67a2.622 2.622 0 0 0 .89-1.559c.096-.546.03-1.124-.156-1.673.732-.208 1.583-.11 2.049.288.595.509.361 1.412.06 2.08a.77.77 0 0 0 .403 1.025.798.798 0 0 0 1.044-.396c.59-1.309 1.285-1.445 1.764-1.33.889.216 1.732 1.348 1.67 2.245z" fill-rule="nonzero"/>
</symbol><symbol id="icon-check-mark" viewBox="0 0 490.05 490.05">
    <path d="M418.275 418.275c95.7-95.7 95.7-250.8 0-346.5s-250.8-95.7-346.5 0-95.7 250.8 0 346.5 250.9 95.7 346.5 0zm-261.1-210.7l55.1 55.1 120.7-120.6 42.7 42.7-120.6 120.6-42.8 42.7-42.7-42.7-55.1-55.1 42.7-42.7z"/>
</symbol><symbol id="icon-down-arrow" viewBox="0 0 129 129">
    <path d="M121.3 34.6c-1.6-1.6-4.2-1.6-5.8 0l-51 51.1-51.1-51.1c-1.6-1.6-4.2-1.6-5.8 0-1.6 1.6-1.6 4.2 0 5.8l53.9 53.9c.8.8 1.8 1.2 2.9 1.2 1 0 2.1-.4 2.9-1.2l53.9-53.9c1.7-1.6 1.7-4.2.1-5.8z"/>
</symbol><symbol id="icon-fb" viewBox="0 0 430.113 430.114">
    <path d="M158.081 83.3v59.218h-43.385v72.412h43.385v215.183h89.122V214.936h59.805s5.601-34.721 8.316-72.685H247.54V92.74c0-7.4 9.717-17.354 19.321-17.354h48.557V.001h-66.021C155.878-.004 158.081 72.48 158.081 83.3z"/>
</symbol><symbol id="icon-i" viewBox="0 0 23.625 23.625">
    <path d="M11.812 0C5.289 0 0 5.289 0 11.812s5.289 11.813 11.812 11.813 11.813-5.29 11.813-11.813S18.335 0 11.812 0zm2.459 18.307c-.608.24-1.092.422-1.455.548a3.838 3.838 0 0 1-1.262.189c-.736 0-1.309-.18-1.717-.539s-.611-.814-.611-1.367c0-.215.015-.435.045-.659a8.23 8.23 0 0 1 .147-.759l.761-2.688c.067-.258.125-.503.171-.731.046-.23.068-.441.068-.633 0-.342-.071-.582-.212-.717-.143-.135-.412-.201-.813-.201-.196 0-.398.029-.605.09-.205.063-.383.12-.529.176l.201-.828c.498-.203.975-.377 1.43-.521a4.225 4.225 0 0 1 1.29-.218c.731 0 1.295.178 1.692.53.395.353.594.812.594 1.376 0 .117-.014.323-.041.617a4.129 4.129 0 0 1-.152.811l-.757 2.68a7.582 7.582 0 0 0-.167.736 3.892 3.892 0 0 0-.073.626c0 .356.079.599.239.728.158.129.435.194.827.194.185 0 .392-.033.626-.097.232-.064.4-.121.506-.17l-.203.827zm-.134-10.878a1.807 1.807 0 0 1-1.275.492c-.496 0-.924-.164-1.28-.492a1.57 1.57 0 0 1-.533-1.193c0-.465.18-.865.533-1.196a1.812 1.812 0 0 1 1.28-.497c.497 0 .923.165 1.275.497.353.331.53.731.53 1.196 0 .467-.177.865-.53 1.193z"/>
</symbol><symbol id="icon-instagram" viewBox="0 0 22 22">
    
    <title>
        social_in
    </title>
    <path class="cls-1" d="M11 2c2.94 0 3.28 0 4.44.07a5.9 5.9 0 0 1 2 .38 3.39 3.39 0 0 1 1.26.82 3.44 3.44 0 0 1 .82 1.26 6.13 6.13 0 0 1 .38 2c.1 1.18.1 1.53.1 4.47s0 3.28-.06 4.44a6.07 6.07 0 0 1-.38 2 3.48 3.48 0 0 1-.82 1.27 3.52 3.52 0 0 1-1.26.82 6.15 6.15 0 0 1-2 .38c-1.2.09-1.54.09-4.48.09H6.56a6.15 6.15 0 0 1-2-.38 3.44 3.44 0 0 1-1.26-.82 3.48 3.48 0 0 1-.82-1.27 6.07 6.07 0 0 1-.38-2C2 14.28 2 13.93 2 11s0-3.29.07-4.45a6.13 6.13 0 0 1 .38-2 3.44 3.44 0 0 1 .82-1.26 3.32 3.32 0 0 1 1.26-.82 5.9 5.9 0 0 1 2.05-.38C7.72 2 8.06 2 11 2m0-2C8 0 7.64 0 6.47.07A8 8 0 0 0 3.8.58a5.34 5.34 0 0 0-1.95 1.27A5.39 5.39 0 0 0 .58 3.79a8 8 0 0 0-.51 2.67C0 7.64 0 8 0 11s0 3.36.07 4.53a8 8 0 0 0 .51 2.67 5.42 5.42 0 0 0 1.27 1.95 5.34 5.34 0 0 0 1.95 1.27 8.31 8.31 0 0 0 2.67.51C7.64 22 8 22 11 22s3.36 0 4.53-.06a8.31 8.31 0 0 0 2.67-.51 5.34 5.34 0 0 0 1.95-1.27 5.42 5.42 0 0 0 1.27-1.95 8 8 0 0 0 .51-2.67C22 14.36 22 14 22 11s0-3.36-.07-4.54a8 8 0 0 0-.51-2.67 5.39 5.39 0 0 0-1.27-1.94A5.34 5.34 0 0 0 18.2.58a8 8 0 0 0-2.67-.51C14.36 0 14 0 11 0"/>
    <path class="cls-1" d="M11 5.35A5.65 5.65 0 1 0 16.65 11 5.65 5.65 0 0 0 11 5.35m0 9.31A3.67 3.67 0 1 1 14.67 11 3.67 3.67 0 0 1 11 14.66"/>
    <path class="cls-1" d="M18.19 5.13a1.32 1.32 0 1 1-1.32-1.32 1.32 1.32 0 0 1 1.32 1.32"/>
</symbol><symbol id="icon-left-arrow" viewBox="0 0 44.238 44.238">
    <path d="M22.119 44.237C9.922 44.237 0 34.315 0 22.119S9.922.001 22.119.001s22.119 9.922 22.119 22.118-9.924 22.118-22.119 22.118zm0-42.736C10.75 1.501 1.5 10.75 1.5 22.119c0 11.368 9.25 20.618 20.619 20.618s20.619-9.25 20.619-20.618c0-11.369-9.25-20.618-20.619-20.618z"/>
    <path d="M24.667 29.884a.74.74 0 0 1-.53-.22l-7.328-7.334a.752.752 0 0 1 0-1.061l7.328-7.333a.75.75 0 1 1 1.061 1.061L18.4 21.8l6.798 6.805a.752.752 0 0 1 0 1.061.75.75 0 0 1-.531.218z"/>
</symbol><symbol id="icon-play" viewBox="0 0 510 510">
    <path d="M255 0C114.75 0 0 114.75 0 255s114.75 255 255 255 255-114.75 255-255S395.25 0 255 0zm-51 369.75v-229.5L357 255 204 369.75z"/>
</symbol><symbol id="icon-present" viewBox="0 0 44 42">
    <title>
        present
    </title>
    <path d="M43.202 24.257c-2.03-1.182-4.207-2.627-6.488-4.305a2.13 2.13 0 0 0 1.315-1.973v-4.895c0-1.173-.939-2.127-2.093-2.127h-1.743c2.48-2.11 2.918-5.863.94-8.508-2.037-2.724-5.876-3.257-8.557-1.187C25.221 2.308 23.201 4.825 22 7.37c-1.201-2.545-3.23-5.07-4.576-6.11-2.681-2.07-6.52-1.536-8.557 1.188A6.258 6.258 0 0 0 7.65 6.788c.034.36.348.624.703.59a.652.652 0 0 0 .58-.714 4.96 4.96 0 0 1 .18-1.863c.455-.742 1.018-1.167 1.722-1.296.48-.088.98-.032 1.456.097a2.935 2.935 0 0 0-.899.796c-.979 1.31-.727 3.185.562 4.18.67.517 2.258 1.326 4.162 1.88.653.19 1.819.47 1.814.5h-5.72a9.46 9.46 0 0 1-1.394-.858 4.851 4.851 0 0 1-1.14-1.251.638.638 0 0 0-.891-.197c-.3.195-.386.6-.194.905.333.527.741.997 1.216 1.4H8.064c-1.154 0-2.093.954-2.093 2.127v4.895a2.13 2.13 0 0 0 1.315 1.973C5.005 21.63 2.828 23.075.799 24.257a1.595 1.595 0 0 0-.761 1.737c.148.702.698 1.2 1.4 1.269l1.588.155-.762 1.826a1.611 1.611 0 0 0 .403 1.833c.303.275 1.046.634 1.84.204 1.308-.709 2.602-1.555 3.908-2.433v10.766C8.415 40.93 9.47 42 10.763 42h22.474c1.294 0 2.348-1.07 2.348-2.386V20.737c2.453 1.823 4.796 3.387 6.976 4.656a.286.286 0 0 1 .141.325.29.29 0 0 1-.265.24l-2.461.242a.644.644 0 0 0-.492.317.665.665 0 0 0-.04.59l1.105 2.649a.29.29 0 0 1-.076.345.28.28 0 0 1-.348.039 60.508 60.508 0 0 1-2.462-1.488.638.638 0 0 0-.888.207.66.66 0 0 0 .204.903c.845.537 1.676 1.076 2.514 1.52.801.422 1.537.07 1.84-.205a1.611 1.611 0 0 0 .403-1.833l-.762-1.826 1.587-.155a1.574 1.574 0 0 0 1.401-1.269c.149-.7-.15-1.381-.76-1.737zM22 8.734c1.34 0 2.465.95 2.757 2.223h-5.514C19.535 9.685 20.66 8.734 22 8.734zM11.006 2.166a4.764 4.764 0 0 1 5.638.138c1.173.906 2.928 3.079 4.05 5.337a4.12 4.12 0 0 0-1.606 1.011C16.908 3.557 13.24 2 11.006 2.166zm5.464 7.032c-1.648-.48-3.155-1.215-3.736-1.663a1.693 1.693 0 0 1-.315-2.345c.323-.432.815-.66 1.313-.66.347 0 .697.11.994.34.58.449 1.682 1.727 2.579 3.212.316.523.578 1.02.782 1.484a12.729 12.729 0 0 1-1.617-.368zM8.415 27.271a62.873 62.873 0 0 1-4.54 2.868.28.28 0 0 1-.348-.038.29.29 0 0 1-.076-.346l1.105-2.647a.665.665 0 0 0-.04-.591.644.644 0 0 0-.492-.317l-2.462-.241a.29.29 0 0 1-.265-.24.286.286 0 0 1 .142-.326c2.18-1.269 4.522-2.833 6.976-4.656v6.534zm-.35-8.475a.811.811 0 0 1-.805-.817v-4.895c0-.45.361-.817.804-.817h9.815v6.529H8.064zM24.831 40.69h-5.664V37.46a.65.65 0 0 0-.645-.655.65.65 0 0 0-.644.655v3.231h-7.116a1.069 1.069 0 0 1-1.059-1.076V20.106h8.175V34.64a.65.65 0 0 0 .645.655.65.65 0 0 0 .644-.655V20.106h5.664V40.69zm0-21.894h-5.664v-6.529h5.664v6.529zM23.305 7.64c1.118-2.24 2.896-4.445 4.051-5.337a4.764 4.764 0 0 1 5.638-.138c-2.235-.167-5.514.642-8.082 6.486a4.117 4.117 0 0 0-1.607-1.01zm3.39.44c.897-1.484 1.998-2.762 2.58-3.21a1.635 1.635 0 0 1 2.307.32c.549.734.407 1.786-.316 2.344-.58.448-2.088 1.184-3.736 1.663-.654.19-1.192.302-1.617.368.204-.463.466-.96.782-1.484zm1.19 2.376c1.903-.554 3.491-1.362 4.161-1.88a2.972 2.972 0 0 0 1.132-1.971 2.998 2.998 0 0 0-1.463-3c.482-.131.98-.187 1.447-.102.704.128 1.269.553 1.723 1.295.557 1.898-.059 4.034-1.7 5.301a9.482 9.482 0 0 1-1.395.857h-5.72c-.004-.03 1.159-.309 1.815-.5zm6.41 29.157c0 .594-.474 1.076-1.058 1.076H26.12V20.106h8.175v19.508zm1.64-20.818h-9.814v-6.529h9.815c.443 0 .804.366.804.817v4.895c0 .45-.36.817-.804.817z" fill-rule="nonzero"/>
</symbol><symbol id="icon-vk" viewBox="0 0 22 22">
    
    <title>
        social_vk
    </title>
    <path class="cls-1" d="M18.22 11.3s2.89-4.08 3.17-5.42c.1-.48-.11-.75-.61-.75h-2.51a.91.91 0 0 0-.95.62 22.85 22.85 0 0 1-3 4.7c-.53.59-.8.77-1.09.77s-.34-.2-.34-.73V5.84c0-.65-.08-.84-.61-.84h-4c-.31 0-.5.18-.5.42 0 .61.94.75.94 2.41v3.43c0 .69 0 1-.37 1-.86 0-2.9-3-4.05-6.33C4 5.19 3.79 5 3.14 5H.63a.6.6 0 0 0-.63.61c0 .67.78 3.77 3.87 7.92 2.06 2.8 4.78 4.31 7.23 4.31 1.49 0 1.85-.25 1.85-.88v-2.14c0-.54.22-.77.52-.77s.95.11 2.37 1.51c1.69 1.61 1.8 2.28 2.72 2.28h2.81c.29 0 .56-.13.56-.61s-.82-1.76-2.09-3.1c-.51-.69-1.35-1.44-1.62-1.78s-.27-.63 0-1"/>
</symbol></svg>