<svg width="42" height="30" viewBox="0 0 42 30" xmlns="http://www.w3.org/2000/svg">
    <title>
        -g-icons8-виза
    </title>
    <g transform="translate(-245 -1016)" fill="none" fill-rule="evenodd">
        <rect fill="#FDF0F4" x="203" y="949" width="283" height="129" rx="5"/>
        <rect stroke="#FAD0DC" x="203.5" y="948.5" width="282" height="130" rx="5"/>
        <g fill-rule="nonzero">
            <path d="M287 1042c0 2.21-1.79 4-4 4h-34c-2.21 0-4-1.79-4-4v-22c0-2.21 1.79-4 4-4h34c2.21 0 4 1.79 4 4v22z" fill="#1565C0"/>
            <path d="M257.188 1026l-2.63 7.832s-.663-3.312-.73-3.73c-1.496-3.41-3.703-3.22-3.703-3.22l2.602 10.118v-.004h3.16l4.37-10.996h-3.07z" fill="#FFF"/>
            <path fill="#FFF" d="M259.688 1037h2.87l1.739-11h-2.906z"/>
            <path d="M280.008 1026h-3.02l-4.71 11h2.85l.59-1.57h3.594l.305 1.57h2.613l-2.222-11zm-3.496 7.328l1.562-4.156.82 4.156h-2.382z" fill="#FFF"/>
            <path d="M268.367 1029.207c0-.605.5-1.059 1.93-1.059.926 0 1.988.676 1.988.676l.469-2.308s-1.36-.516-2.691-.516c-3.02 0-4.579 1.441-4.579 3.27 0 3.308 3.98 2.855 3.98 4.55 0 .293-.23.965-1.89.965s-2.758-.61-2.758-.61l-.496 2.22s1.067.605 3.117.605c2.06 0 4.918-1.54 4.918-3.754 0-2.66-3.988-2.851-3.988-4.039z" fill="#FFF"/>
            <path d="M254.21 1031.945l-.964-4.75s-.437-1.027-1.574-1.027h-4.438s5.66 1.672 6.977 5.777z" fill="#FFC107"/>
        </g>
    </g>
</svg>
